<svg width="44" height="44" viewBox="0 0 44 44" fill="none" xmlns="http://www.w3.org/2000/svg">
<g clip-path="url(#clip0_142_6812)">
<g clip-path="url(#clip1_142_6812)">
<mask id="mask0_142_6812" style="mask-type:luminance" maskUnits="userSpaceOnUse" x="7" y="8" width="27" height="28">
<path d="M27.2393 8.67188H13.8059C10.1167 8.67188 7.12598 11.6626 7.12598 15.3518V28.7117C7.12598 32.4009 10.1167 35.3917 13.8059 35.3917H27.2393C30.9285 35.3917 33.9192 32.4009 33.9192 28.7117V15.3518C33.9192 11.6626 30.9285 8.67188 27.2393 8.67188Z" fill="white"/>
</mask>
<g mask="url(#mask0_142_6812)">
<path fill-rule="evenodd" clip-rule="evenodd" d="M9.39996 21.2445C16.3232 18.2364 20.9398 16.2533 23.2497 15.2951C29.845 12.5594 31.2155 12.0842 32.1087 12.0685C32.3052 12.0651 32.7444 12.1136 33.029 12.3439C33.2692 12.5383 33.3352 12.8009 33.367 12.9853C33.3986 13.1696 33.438 13.5895 33.4066 13.9176C33.0493 17.6626 31.5028 26.7506 30.716 30.9451C30.3832 32.7197 29.7277 33.3149 29.0931 33.3731C27.7138 33.4996 26.6666 32.4642 25.3309 31.591C23.2407 30.2245 22.0598 29.374 20.0309 28.0407C17.6862 26.4997 19.2062 25.6528 20.5425 24.2687C20.8922 23.9065 26.9688 18.3946 27.0863 17.8946C27.101 17.832 27.1146 17.5989 26.9758 17.4758C26.8369 17.3528 26.6319 17.3949 26.484 17.4283C26.2744 17.4758 22.9353 19.6768 16.4667 24.0313C15.5189 24.6803 14.6604 24.9966 13.8912 24.98C13.0433 24.9617 11.4122 24.5019 10.1996 24.1088C8.71232 23.6267 7.53027 23.3718 7.6332 22.553C7.68681 22.1265 8.27574 21.6903 9.39996 21.2445Z" fill="#193867"/>
</g>
</g>
</g>
<!-- <rect x="0.5" y="0.5" width="43" height="43" rx="5.5" stroke="#193867"/> -->
<defs>
<clipPath id="clip0_142_6812">
<rect width="28.7071" height="28.7071" fill="white" transform="translate(6 8)"/>
</clipPath>
<clipPath id="clip1_142_6812">
<rect width="28.7071" height="28.7071" fill="white" transform="translate(6 8)"/>
</clipPath>
</defs>
</svg>
