<svg width="44" height="44" viewBox="0 0 44 44" fill="none" xmlns="http://www.w3.org/2000/svg">
<g clip-path="url(#clip0_130_5595)">
<g clip-path="url(#clip1_130_5595)">
<g clip-path="url(#clip2_130_5595)">
<mask id="mask0_130_5595" style="mask-type:luminance" maskUnits="userSpaceOnUse" x="8" y="8" width="29" height="29">
<path d="M36.7071 8H8V36.7071H36.7071V8Z" fill="white"/>
</mask>
<g mask="url(#mask0_130_5595)">
<path d="M8 36.7071L10.029 29.3393C8.77457 27.1767 8.11653 24.7276 8.12338 22.2239C8.12338 14.3786 14.5393 8 22.4153 8C26.2401 8 29.8318 9.48038 32.5258 12.1683C35.2265 14.8561 36.7139 18.4309 36.7071 22.2307C36.7071 30.0761 30.2912 36.4547 22.4083 36.4547H22.4015C20.0092 36.4547 17.6581 35.8544 15.5675 34.7219L8 36.7071ZM15.9308 32.1499L16.3626 32.4091C18.1859 33.4871 20.2766 34.0533 22.4083 34.0602H22.4153C28.9613 34.0602 34.2942 28.7594 34.2942 22.2375C34.2942 19.079 33.0604 16.1114 30.8189 13.8738C28.5775 11.6361 25.5889 10.4082 22.4153 10.4082C15.8691 10.4013 10.5362 15.7021 10.5362 22.2239C10.5362 24.4548 11.16 26.6309 12.3527 28.5138L12.6337 28.9641L11.4342 33.3233L15.9308 32.1499Z" fill="#424249"/>
<path fill-rule="evenodd" clip-rule="evenodd" d="M18.844 16.2751C18.5767 15.6816 18.2957 15.6679 18.042 15.6611C17.8364 15.6543 17.5965 15.6543 17.3566 15.6543C17.1167 15.6543 16.7328 15.743 16.4038 16.0977C16.0748 16.4525 15.1562 17.312 15.1562 19.0653C15.1562 20.8118 16.4381 22.5036 16.6163 22.7423C16.7945 22.9812 19.0908 26.6855 22.7168 28.1113C25.7329 29.2983 26.3498 29.0596 27.001 28.9982C27.6522 28.9368 29.1122 28.1387 29.4138 27.3063C29.7085 26.474 29.7085 25.7646 29.6194 25.6145C29.5303 25.4644 29.2904 25.3757 28.9339 25.1983C28.5775 25.0209 26.8228 24.1614 26.4937 24.0386C26.1648 23.9225 25.9248 23.8612 25.6917 24.216C25.4519 24.5707 24.7664 25.3689 24.5608 25.6076C24.3552 25.8464 24.1426 25.8737 23.7862 25.6963C23.4297 25.5189 22.2782 25.1438 20.9141 23.9294C19.8517 22.988 19.1319 21.8214 18.9263 21.4667C18.7206 21.1119 18.9057 20.9209 19.0839 20.7435C19.2416 20.5867 19.4404 20.3273 19.6186 20.1227C19.7968 19.9181 19.8585 19.768 19.9751 19.5292C20.0916 19.2904 20.0368 19.0858 19.9476 18.9084C19.8585 18.7379 19.1593 16.9778 18.844 16.2751Z" fill="#424249"/>
</g>
</g>
</g>
</g>
<rect x="0.5" y="0.5" width="43" height="43" rx="5.5" stroke="#424249"/>
<defs>
<clipPath id="clip0_130_5595">
<rect width="28.7071" height="28.7071" fill="white" transform="translate(8 8)"/>
</clipPath>
<clipPath id="clip1_130_5595">
<rect width="28.7071" height="28.7071" fill="white" transform="translate(8 8)"/>
</clipPath>
<clipPath id="clip2_130_5595">
<rect width="28.7071" height="28.7071" fill="white" transform="translate(8 8)"/>
</clipPath>
</defs>
</svg>
