<svg width="34" height="23" viewBox="0 0 34 23" fill="none" xmlns="http://www.w3.org/2000/svg">
<path d="M22.5349 0C20.2673 0 18.0506 0.674463 16.1652 1.9381C14.2798 3.20173 12.8103 4.99779 11.9425 7.09914C11.0747 9.20049 10.8477 11.5128 11.2901 13.7435C11.7325 15.9743 12.8244 18.0234 14.4278 19.6317C16.0312 21.24 18.0741 22.3353 20.2982 22.779C22.5222 23.2228 24.8274 22.995 26.9224 22.1246C29.0174 21.2542 30.808 19.7802 32.0678 17.8891C33.3276 15.9979 34 13.7745 34 11.5C33.9958 8.4513 32.7865 5.52867 30.6373 3.37291C28.4881 1.21715 25.5743 0.00419643 22.5349 0ZM26.1405 15.1165C25.9181 15.3393 25.6166 15.4645 25.3023 15.4645C24.988 15.4645 24.6866 15.3393 24.4642 15.1165L21.7442 12.3407C21.5217 12.1178 21.3966 11.8154 21.3963 11.5V6.74138C21.3963 6.42586 21.5212 6.12327 21.7437 5.90017C21.9661 5.67706 22.2678 5.55172 22.5823 5.55172C22.8969 5.55172 23.1986 5.67706 23.421 5.90017C23.6434 6.12327 23.7684 6.42586 23.7684 6.74138V11.0083L26.1879 13.4352C26.4038 13.6645 26.5201 13.9704 26.5112 14.2857C26.5023 14.601 26.369 14.8999 26.1405 15.1165ZM8.30233 12.6897H1.18605C0.871487 12.6897 0.569812 12.5643 0.347385 12.3412C0.124958 12.1181 0 11.8155 0 11.5C0 11.1845 0.124958 10.8819 0.347385 10.6588C0.569812 10.4357 0.871487 10.3103 1.18605 10.3103H8.30233C8.61689 10.3103 8.91856 10.4357 9.14099 10.6588C9.36341 10.8819 9.48837 11.1845 9.48837 11.5C9.48837 11.8155 9.36341 12.1181 9.14099 12.3412C8.91856 12.5643 8.61689 12.6897 8.30233 12.6897Z" fill="#F8B514"/>
<path d="M9.88368 6.34415H5.93019C5.61563 6.34415 5.31395 6.21881 5.09153 5.99571C4.8691 5.77261 4.74414 5.47001 4.74414 5.1545C4.74414 4.83898 4.8691 4.53639 5.09153 4.31329C5.31395 4.09018 5.61563 3.96484 5.93019 3.96484H9.88368C10.1982 3.96484 10.4999 4.09018 10.7223 4.31329C10.9448 4.53639 11.0697 4.83898 11.0697 5.1545C11.0697 5.47001 10.9448 5.77261 10.7223 5.99571C10.4999 6.21881 10.1982 6.34415 9.88368 6.34415ZM9.88368 19.0338H5.93019C5.61563 19.0338 5.31395 18.9085 5.09153 18.6854C4.8691 18.4623 4.74414 18.1597 4.74414 17.8442C4.74414 17.5286 4.8691 17.226 5.09153 17.0029C5.31395 16.7798 5.61563 16.6545 5.93019 16.6545H9.88368C10.1982 16.6545 10.4999 16.7798 10.7223 17.0029C10.9448 17.226 11.0697 17.5286 11.0697 17.8442C11.0697 18.1597 10.9448 18.4623 10.7223 18.6854C10.4999 18.9085 10.1982 19.0338 9.88368 19.0338Z" fill="#F8B514"/>
</svg>
