<svg width="90" height="60" viewBox="0 0 90 60" fill="none" xmlns="http://www.w3.org/2000/svg">
<path d="M14.8405 58.6333C14.959 58.5626 15.0527 58.4637 15.1216 58.3309C15.1905 58.2009 15.2264 58.0483 15.2264 57.876C15.2264 57.7064 15.1905 57.5566 15.1216 57.4238C15.0527 57.2938 14.959 57.1921 14.8405 57.1215C14.7192 57.0508 14.587 57.0141 14.4409 57.0141C14.2921 57.0141 14.1598 57.0508 14.0385 57.1215C13.9172 57.1921 13.8235 57.2938 13.7574 57.4238C13.6885 57.5566 13.6554 57.7064 13.6554 57.876C13.6554 58.0483 13.6885 58.2009 13.7574 58.3309C13.8235 58.4637 13.9172 58.5626 14.0385 58.6333C14.1598 58.7067 14.2921 58.7407 14.4409 58.7407C14.587 58.7407 14.7192 58.7067 14.8405 58.6333ZM15.0638 56.7852C15.2457 56.8926 15.3917 57.0395 15.4965 57.2317C15.6012 57.4182 15.6536 57.6358 15.6536 57.876C15.6536 58.1162 15.6012 58.3309 15.4965 58.5202C15.3917 58.7096 15.2457 58.8593 15.0638 58.9667C14.8791 59.0741 14.6724 59.1306 14.4409 59.1306C14.2287 59.1306 14.0385 59.0854 13.8676 58.995C13.6967 58.9046 13.5562 58.7802 13.4459 58.6191C13.3357 58.4552 13.2668 58.2716 13.2392 58.0653H12.7569V59.1024H12.3242V56.6496H12.7569V57.6527H13.2447C13.2751 57.4493 13.344 57.2712 13.4542 57.113C13.5645 56.9604 13.705 56.8389 13.8731 56.7541C14.044 56.6693 14.2342 56.627 14.4409 56.627C14.6724 56.627 14.8791 56.6806 15.0638 56.7852ZM18.3738 58.6304C18.4951 58.5598 18.5915 58.4581 18.6604 58.3253C18.7321 58.1953 18.7679 58.0455 18.7679 57.876C18.7679 57.7064 18.7321 57.5566 18.6604 57.4238C18.5915 57.2938 18.4951 57.1921 18.3738 57.1215C18.2498 57.0508 18.1147 57.0141 17.9604 57.0141C17.8088 57.0141 17.6738 57.0508 17.5525 57.1243C17.4285 57.1978 17.332 57.2967 17.2631 57.4267C17.1914 57.5566 17.1556 57.7064 17.1556 57.876C17.1556 58.0455 17.1914 58.1953 17.2604 58.3253C17.3293 58.4581 17.4257 58.5598 17.5497 58.6304C17.6738 58.7039 17.8088 58.7407 17.9604 58.7407C18.1147 58.7407 18.2498 58.7039 18.3738 58.6304ZM18.6191 56.7824C18.801 56.8898 18.9471 57.0339 19.049 57.2232C19.1538 57.4125 19.2061 57.6273 19.2061 57.876C19.2061 58.1218 19.1538 58.3422 19.049 58.5287C18.9471 58.7209 18.801 58.8678 18.6191 58.9724C18.4344 59.0769 18.2277 59.1278 17.9962 59.1278C17.8253 59.1278 17.6683 59.0967 17.5249 59.0289C17.3816 58.9582 17.2604 58.8593 17.1611 58.7322V60.001H16.7284V56.6496H17.1446V57.0395C17.2411 56.9011 17.3623 56.7993 17.5084 56.7315C17.6572 56.6609 17.8198 56.627 17.9962 56.627C18.2277 56.627 18.4344 56.6778 18.6191 56.7824ZM20.2838 56.6496H20.7165V58.4355L22.1855 56.6496H22.5768V59.1024H22.1441V57.3164L20.6806 59.1024H20.2838V56.6496ZM24.3655 58.2744C24.3269 58.4779 24.2608 58.622 24.1616 58.7124H25.501V57.0367H24.462L24.4399 57.5086C24.4289 57.8194 24.4041 58.0738 24.3655 58.2744ZM26.3003 58.7124V59.6703H25.8924V59.1024H23.8942V59.6703H23.4836V58.7124H23.6104C23.7647 58.7039 23.8694 58.5937 23.9245 58.379C23.9824 58.167 24.021 57.8675 24.0431 57.4775L24.0789 56.6496H25.9337V58.7124H26.3003ZM27.3145 56.6496H27.7472V58.4355L29.2135 56.6496H29.6076V59.1024H29.1721V57.3164L27.7114 59.1024H27.3145V56.6496ZM32.8074 56.6496V59.1024H32.3719V58.1105C32.1128 58.2348 31.8565 58.297 31.6002 58.297C31.3026 58.297 31.0738 58.2264 30.9112 58.0822C30.7486 57.941 30.6659 57.729 30.6659 57.4464V56.6496H31.1014V57.4182C31.1014 57.5877 31.151 57.7149 31.2557 57.8025C31.3604 57.8873 31.5038 57.9296 31.6912 57.9296C31.9034 57.9296 32.1294 57.876 32.3719 57.7686V56.6496H32.8074ZM34.5547 57.1949C34.4142 57.3249 34.3342 57.4945 34.3094 57.7036H35.8418C35.8198 57.4973 35.7371 57.3306 35.5965 57.1978C35.456 57.065 35.2823 57 35.0756 57C34.8689 57 34.6953 57.065 34.5547 57.1949ZM36.2497 58.0229H34.3094C34.3342 58.2405 34.428 58.4129 34.585 58.5428C34.7449 58.6757 34.9406 58.7407 35.1748 58.7407C35.4615 58.7407 35.6902 58.6418 35.8666 58.4439L36.1036 58.7322C35.9962 58.8622 35.8611 58.9582 35.7013 59.0261C35.5387 59.0939 35.3595 59.1306 35.1611 59.1306C34.9103 59.1306 34.6843 59.0769 34.4886 58.9695C34.2929 58.865 34.1413 58.7152 34.0366 58.5231C33.9291 58.3309 33.874 58.1162 33.874 57.876C33.874 57.6386 33.9263 57.4238 34.0311 57.2317C34.1358 57.0395 34.2764 56.8926 34.461 56.7852C34.6429 56.6778 34.8469 56.627 35.0756 56.627C35.3044 56.627 35.5083 56.6778 35.6875 56.7852C35.8666 56.8926 36.0072 57.0395 36.1064 57.2317C36.2084 57.4238 36.258 57.6414 36.258 57.8901C36.258 57.924 36.2552 57.9664 36.2497 58.0229ZM37.7711 58.9667C37.5809 58.8593 37.4321 58.7124 37.3246 58.5202C37.2143 58.3309 37.1592 58.1162 37.1592 57.876C37.1592 57.6358 37.2143 57.4182 37.3246 57.2317C37.4321 57.0395 37.5809 56.8926 37.7711 56.7852C37.964 56.6778 38.1817 56.627 38.4243 56.627C38.6392 56.627 38.8349 56.6722 39.003 56.7598C39.1739 56.8502 39.3062 56.9802 39.3999 57.1497L39.0692 57.3673C38.9948 57.2486 38.9011 57.161 38.7908 57.1045C38.6778 57.0452 38.5566 57.0141 38.4188 57.0141C38.2644 57.0141 38.1238 57.0508 37.9971 57.1215C37.873 57.1921 37.7738 57.2938 37.7049 57.4238C37.6333 57.5566 37.5974 57.7064 37.5974 57.876C37.5974 58.0483 37.6333 58.2009 37.7049 58.3309C37.7738 58.4637 37.873 58.5626 37.9971 58.6333C38.1238 58.7067 38.2644 58.7407 38.4188 58.7407C38.5566 58.7407 38.6778 58.7124 38.7908 58.6531C38.9011 58.5937 38.9948 58.5061 39.0692 58.3874L39.3999 58.6022C39.3062 58.7717 39.1739 58.9017 39.003 58.9922C38.8349 59.0826 38.6392 59.1306 38.4243 59.1306C38.1817 59.1306 37.964 59.0741 37.7711 58.9667ZM41.3402 58.0653H40.8441V59.1024H40.4086V56.6496H40.8441V57.6866H41.3485L42.1257 56.6496H42.5887L41.6819 57.8307L42.6521 59.1024H42.1422L41.3402 58.0653ZM44.6971 58.6728C44.8184 58.5994 44.9038 58.492 44.9589 58.3535V58.0088H44.2919C43.9226 58.0088 43.7407 58.1359 43.7407 58.3874C43.7407 58.5118 43.7876 58.6107 43.8813 58.6813C43.9722 58.752 44.1018 58.7859 44.2671 58.7859C44.4325 58.7859 44.5758 58.7491 44.6971 58.6728ZM45.127 56.8756C45.3034 57.0423 45.3916 57.291 45.3916 57.6216V59.1024H44.981V58.7774C44.9093 58.8932 44.8046 58.978 44.6723 59.0402C44.5372 59.0995 44.3801 59.1306 44.1955 59.1306C43.9281 59.1306 43.7132 59.0628 43.5533 58.93C43.3907 58.7972 43.3108 58.6248 43.3108 58.4072C43.3108 58.1924 43.388 58.0172 43.5423 57.8873C43.6939 57.7544 43.9392 57.6895 44.2727 57.6895H44.9589V57.6019C44.9589 57.4125 44.9038 57.2656 44.7963 57.1639C44.6888 57.0621 44.529 57.0113 44.3168 57.0113C44.1762 57.0113 44.0384 57.0339 43.9033 57.0819C43.7683 57.1299 43.6525 57.1949 43.5588 57.2741L43.3797 56.9406C43.5037 56.8389 43.6498 56.7598 43.8207 56.7061C43.9943 56.6524 44.1762 56.627 44.3664 56.627C44.6971 56.627 44.9506 56.7089 45.127 56.8756ZM47.037 57.8873C47.139 57.9664 47.2878 58.0059 47.4918 58.0059H48.1532V57.0367H47.5083C47.0921 57.0367 46.8854 57.2006 46.8854 57.5227C46.8854 57.6866 46.935 57.8081 47.037 57.8873ZM48.5418 56.6496V59.1024H48.1532V58.3253H47.4091L46.8854 59.1024H46.4196L47.0012 58.2631C46.822 58.2094 46.6842 58.1162 46.5878 57.989C46.4913 57.8618 46.4417 57.7008 46.4417 57.5114C46.4417 57.2288 46.5354 57.0169 46.7228 56.87C46.9102 56.723 47.1665 56.6496 47.4945 56.6496H48.5418ZM52.4306 58.0653H51.9345V59.1024H51.5018V56.6496H51.9345V57.6866H52.4417L53.2161 56.6496H53.6819L52.7752 57.8307L53.7453 59.1024H53.2354L52.4306 58.0653ZM56.008 58.6304C56.1293 58.5598 56.2258 58.4581 56.2947 58.3253C56.3636 58.1953 56.3994 58.0455 56.3994 57.876C56.3994 57.7064 56.3636 57.5566 56.2947 57.4238C56.2258 57.2938 56.1293 57.1921 56.008 57.1215C55.884 57.0508 55.749 57.0141 55.5946 57.0141C55.4403 57.0141 55.3025 57.0508 55.1812 57.1215C55.0599 57.1921 54.9635 57.2938 54.8918 57.4238C54.8229 57.5566 54.7871 57.7064 54.7871 57.876C54.7871 58.0455 54.8229 58.1953 54.8918 58.3253C54.9635 58.4581 55.0599 58.5598 55.1812 58.6304C55.3025 58.7039 55.4403 58.7407 55.5946 58.7407C55.749 58.7407 55.884 58.7039 56.008 58.6304ZM54.9552 58.9667C54.765 58.8593 54.6162 58.7096 54.5087 58.5202C54.404 58.3309 54.3489 58.1162 54.3489 57.876C54.3489 57.6358 54.404 57.4182 54.5087 57.2317C54.6162 57.0395 54.765 56.8926 54.9552 56.7852C55.1426 56.6806 55.3576 56.627 55.5946 56.627C55.8316 56.627 56.0466 56.6806 56.2313 56.7852C56.4214 56.8926 56.5675 57.0395 56.675 57.2317C56.7825 57.4182 56.8349 57.6358 56.8349 57.876C56.8349 58.1162 56.7825 58.3309 56.675 58.5202C56.5675 58.7096 56.4214 58.8593 56.2313 58.9667C56.0466 59.0741 55.8316 59.1278 55.5946 59.1278C55.3576 59.1278 55.1426 59.0741 54.9552 58.9667ZM60.6713 56.6496V59.1024H60.2772V57.3108L59.3842 58.8254H59.1941L58.3094 57.3051V59.1024H57.9152V56.6496H58.3617L59.2988 58.3055L60.2662 56.6496H60.6713ZM64.1826 56.6496V59.1024H63.7498V57.0367H62.3994V59.1024H61.9667V56.6496H64.1826ZM66.6548 58.6728C66.776 58.5994 66.8615 58.492 66.9166 58.3535V58.0088H66.2496C65.8803 58.0088 65.6984 58.1359 65.6984 58.3874C65.6984 58.5118 65.7452 58.6107 65.839 58.6813C65.9327 58.752 66.0594 58.7859 66.2276 58.7859C66.3929 58.7859 66.5335 58.7491 66.6548 58.6728ZM67.0847 56.8756C67.2611 57.0423 67.3493 57.291 67.3493 57.6216V59.1024H66.9386V58.7774C66.867 58.8932 66.7622 58.978 66.6299 59.0402C66.4949 59.0995 66.3378 59.1306 66.1531 59.1306C65.8858 59.1306 65.6708 59.0628 65.511 58.93C65.3484 58.7972 65.2684 58.6248 65.2684 58.4072C65.2684 58.1924 65.3456 58.0172 65.5 57.8873C65.6515 57.7544 65.8968 57.6895 66.2303 57.6895H66.9166V57.6019C66.9166 57.4125 66.8615 57.2656 66.754 57.1639C66.6465 57.0621 66.4866 57.0113 66.2772 57.0113C66.1339 57.0113 65.9961 57.0339 65.861 57.0819C65.726 57.1299 65.6102 57.1949 65.5192 57.2741L65.3373 56.9406C65.4614 56.8389 65.6074 56.7598 65.7783 56.7061C65.952 56.6524 66.1339 56.627 66.324 56.627C66.6575 56.627 66.9083 56.7089 67.0847 56.8756ZM68.5812 56.6496H69.014V57.6895H70.3782V56.6496H70.8109V59.1024H70.3782V58.0738H69.014V59.1024H68.5812V56.6496ZM72.1063 56.6496H72.539V58.4355L74.0052 56.6496H74.3993V59.1024H73.9639V57.3164L72.5031 59.1024H72.1063V56.6496ZM76.0998 57.8873C76.2018 57.9664 76.3534 58.0059 76.5546 58.0059H77.2188V57.0367H76.5739C76.1577 57.0367 75.9482 57.2006 75.9482 57.5227C75.9482 57.6866 76.0006 57.8081 76.0998 57.8873ZM77.6046 56.6496V59.1024H77.2188V58.3253H76.4719L75.9482 59.1024H75.4852L76.0668 58.2631C75.8849 58.2094 75.747 58.1162 75.6506 57.989C75.5569 57.8618 75.5073 57.7008 75.5073 57.5114C75.5073 57.2288 75.601 57.0169 75.7884 56.87C75.973 56.723 76.2321 56.6496 76.5573 56.6496H77.6046Z" fill="url(#paint0_linear_96_4436)"/>
<path d="M5.54247 47.0415H6.47127C6.59253 47.0415 6.60907 47.0531 6.60907 47.085C6.6008 47.1286 6.54293 47.1286 6.4878 47.1635C6.26732 47.2912 6.24251 47.4974 6.24251 47.875V50.6629C6.24251 51.3483 6.33346 51.9233 6.43819 52.1876C6.53741 52.4286 6.74687 52.4286 6.74687 52.507C6.74687 52.5331 6.69727 52.5564 6.64214 52.5564C6.54292 52.5564 6.29212 52.5331 5.9173 52.5331C5.48459 52.5331 5.15937 52.5564 5.11252 52.5564C5.06291 52.5564 5.05464 52.5215 5.05464 52.507C5.05464 52.4809 5.21725 52.4547 5.32474 52.3328C5.47081 52.1788 5.54247 51.9233 5.54247 51.2641V47.6252H5.52593L3.32934 52.3763C3.27146 52.507 3.20807 52.5999 3.1502 52.5999C3.07578 52.5999 3.04546 52.4722 2.98759 52.3415L0.87092 47.6862H0.846115H0.854384V51.1595C0.854384 52.0336 1.0418 52.2137 1.29536 52.4112C1.35875 52.4634 1.39182 52.4896 1.39182 52.5215C1.39182 52.5477 1.35875 52.5564 1.23748 52.5564C1.15755 52.5564 1.01699 52.5331 0.724848 52.5331C0.325216 52.5331 0.170877 52.5564 0.0909505 52.5564C0.0248047 52.5564 0 52.5419 0 52.5128C0 52.4896 0.0826823 52.446 0.137804 52.4025C0.504363 52.0859 0.595312 51.537 0.595312 50.9097V48.0376C0.595312 47.4713 0.529167 47.2912 0.270095 47.146C0.212218 47.1112 0.162609 47.0938 0.162609 47.0531C0.170876 47.0183 0.270095 47.0095 0.292144 47.0095C0.47129 47.0095 0.782726 47.0415 0.992187 47.0415H1.35048L3.45888 51.4586L5.54247 47.0415ZM9.94668 47.7878L8.96276 49.6407H10.8672L9.94668 47.7878ZM8.8663 49.8556L8.3454 50.8952C8.18003 51.2118 7.98711 51.6561 7.98711 51.9901C7.98711 52.1382 8.06703 52.2747 8.1883 52.3676C8.28752 52.446 8.41706 52.4634 8.41706 52.5128C8.41706 52.5419 8.36745 52.5477 8.29579 52.5477C8.10011 52.5477 7.91269 52.5302 7.72528 52.5302C7.5296 52.5302 7.32565 52.5477 7.13273 52.5477C7.05831 52.5477 6.9839 52.5477 6.9839 52.507C6.9839 52.4547 7.10792 52.3937 7.15477 52.3415C7.48826 52.0075 7.80796 51.4412 7.99262 51.0724L10.1341 46.9224C10.1506 46.8876 10.1672 46.873 10.192 46.873H10.2085C10.2333 46.873 10.2636 46.905 10.2636 46.9224L12.6669 51.7955C12.7799 52.0249 12.9756 52.266 13.1796 52.4112C13.2512 52.4634 13.3008 52.4896 13.3008 52.507C13.3008 52.5215 13.2926 52.5477 13.2181 52.5477C12.9839 52.5477 12.7055 52.5302 12.4547 52.5302C12.2011 52.5302 11.8594 52.5477 11.6334 52.5477C11.5921 52.5477 11.5673 52.5419 11.5673 52.5215C11.5673 52.4722 11.6389 52.4634 11.7216 52.4199C11.796 52.3763 11.8677 52.3008 11.8677 52.112C11.8677 51.8797 11.6885 51.4325 11.4763 50.9882L10.9499 49.8556H8.8663Z" fill="url(#paint1_linear_96_4436)"/>
<path d="M22.4884 52.5553C22.4167 52.5553 22.2845 52.5321 21.8297 52.5321C21.6258 52.5321 21.3171 52.5553 21.2123 52.5553L20.0079 50.7054C19.7378 50.2843 19.2996 49.7006 18.7622 49.7006C18.4535 49.7006 18.1751 49.8545 18.1751 50.232V51.263C18.1751 51.7073 18.2248 52.2911 18.4921 52.4101C18.5996 52.4537 18.6712 52.4972 18.6712 52.5205C18.6712 52.5466 18.6464 52.5553 18.5913 52.5553C18.437 52.5553 18.2165 52.5321 17.8251 52.5321C17.4338 52.5321 17.2574 52.5553 17.1582 52.5553C17.07 52.5553 17.0204 52.5466 17.0204 52.5205C17.0204 52.506 17.07 52.4711 17.1912 52.4188C17.3952 52.3317 17.4751 51.6899 17.4751 51.263V50.232C17.4751 49.8545 17.1995 49.7006 16.8908 49.7006C16.3534 49.7006 15.9124 50.2843 15.6451 50.7054L14.4407 52.5553C14.3332 52.5553 14.0245 52.5321 13.8205 52.5321C13.3658 52.5321 13.2363 52.5553 13.1618 52.5553C13.1205 52.5553 13.0654 52.5408 13.0654 52.5205C13.0654 52.4885 13.1866 52.445 13.3493 52.3404C13.8619 52.0326 14.2863 51.3995 14.6115 50.8826C15.3364 49.7616 15.5789 49.5641 16.9459 49.5031V49.4857L14.9037 47.8652C14.5537 47.5835 14.3745 47.479 13.9832 47.2902C13.7654 47.1885 13.5532 47.1188 13.5532 47.0753C13.5532 47.0317 13.6414 47.0085 13.8619 47.0085C14.0741 47.0085 14.2918 47.0404 14.5041 47.0404C14.6584 47.0404 14.821 47.0085 14.9781 47.0085C15.0498 47.0085 15.1159 47.0259 15.1159 47.0753C15.1159 47.1101 15.0663 47.1276 15.0167 47.1711C14.9698 47.206 14.9285 47.2641 14.9285 47.3599C14.9285 47.5574 15.4659 48.0453 16.0502 48.5099L17.4751 49.6309V48.1556C17.4751 47.5661 17.42 47.2466 17.1747 47.1188C17.1334 47.1014 17.1168 47.0666 17.1168 47.0521C17.1168 47.0317 17.1416 47.0085 17.2078 47.0085C17.2712 47.0085 17.5247 47.0404 17.8251 47.0404C18.0125 47.0404 18.2082 47.0085 18.3956 47.0085C18.4618 47.0085 18.4783 47.0317 18.4783 47.0579C18.4783 47.0927 18.4287 47.1276 18.3626 47.1624C18.2 47.2292 18.1751 47.5835 18.1751 47.8739V49.6309L19.6 48.5099C20.1871 48.0453 20.7245 47.5574 20.7245 47.3599C20.7245 47.2641 20.6832 47.206 20.6336 47.1711C20.584 47.1276 20.5371 47.1101 20.5371 47.0753C20.5371 47.0259 20.6005 47.0085 20.6749 47.0085C20.8292 47.0085 20.9919 47.0404 21.1462 47.0404C21.3584 47.0404 21.5789 47.0085 21.7884 47.0085C22.0089 47.0085 22.0998 47.0317 22.0998 47.0753C22.0998 47.1188 21.8876 47.1885 21.6671 47.2902C21.2757 47.479 21.0966 47.5835 20.7466 47.8652L18.7043 49.4857V49.5031C20.0713 49.5641 20.3166 49.7616 21.0415 50.8826C21.3667 51.3995 21.7884 52.0326 22.301 52.3404C22.4636 52.445 22.5876 52.4885 22.5876 52.5205C22.5876 52.5408 22.5297 52.5553 22.4884 52.5553Z" fill="url(#paint2_linear_96_4436)"/>
<path d="M22.4884 52.5553C22.4167 52.5553 22.2845 52.5321 21.8297 52.5321C21.6258 52.5321 21.3171 52.5553 21.2123 52.5553L20.0079 50.7054C19.7378 50.2843 19.2996 49.7006 18.7622 49.7006C18.4535 49.7006 18.1751 49.8545 18.1751 50.232V51.263C18.1751 51.7073 18.2248 52.2911 18.4921 52.4101C18.5996 52.4537 18.6712 52.4972 18.6712 52.5205C18.6712 52.5466 18.6464 52.5553 18.5913 52.5553C18.437 52.5553 18.2165 52.5321 17.8251 52.5321C17.4338 52.5321 17.2574 52.5553 17.1582 52.5553C17.07 52.5553 17.0204 52.5466 17.0204 52.5205C17.0204 52.506 17.07 52.4711 17.1912 52.4188C17.3952 52.3317 17.4751 51.6899 17.4751 51.263V50.232C17.4751 49.8545 17.1995 49.7006 16.8908 49.7006C16.3534 49.7006 15.9124 50.2843 15.6451 50.7054L14.4407 52.5553C14.3332 52.5553 14.0245 52.5321 13.8205 52.5321C13.3658 52.5321 13.2363 52.5553 13.1618 52.5553C13.1205 52.5553 13.0654 52.5408 13.0654 52.5205C13.0654 52.4885 13.1866 52.445 13.3493 52.3404C13.8619 52.0326 14.2863 51.3995 14.6115 50.8826C15.3364 49.7616 15.5789 49.5641 16.9459 49.5031V49.4857L14.9037 47.8652C14.5537 47.5835 14.3745 47.479 13.9832 47.2902C13.7654 47.1885 13.5532 47.1188 13.5532 47.0753C13.5532 47.0317 13.6414 47.0085 13.8619 47.0085C14.0741 47.0085 14.2918 47.0404 14.5041 47.0404C14.6584 47.0404 14.821 47.0085 14.9781 47.0085C15.0498 47.0085 15.1159 47.0259 15.1159 47.0753C15.1159 47.1101 15.0663 47.1276 15.0167 47.1711C14.9698 47.206 14.9285 47.2641 14.9285 47.3599C14.9285 47.5574 15.4659 48.0453 16.0502 48.5099L17.4751 49.6309V48.1556C17.4751 47.5661 17.42 47.2466 17.1747 47.1188C17.1334 47.1014 17.1168 47.0666 17.1168 47.0521C17.1168 47.0317 17.1416 47.0085 17.2078 47.0085C17.2712 47.0085 17.5247 47.0404 17.8251 47.0404C18.0125 47.0404 18.2082 47.0085 18.3956 47.0085C18.4618 47.0085 18.4783 47.0317 18.4783 47.0579C18.4783 47.0927 18.4287 47.1276 18.3626 47.1624C18.2 47.2292 18.1751 47.5835 18.1751 47.8739V49.6309L19.6 48.5099C20.1871 48.0453 20.7245 47.5574 20.7245 47.3599C20.7245 47.2641 20.6832 47.206 20.6336 47.1711C20.584 47.1276 20.5371 47.1101 20.5371 47.0753C20.5371 47.0259 20.6005 47.0085 20.6749 47.0085C20.8292 47.0085 20.9919 47.0404 21.1462 47.0404C21.3584 47.0404 21.5789 47.0085 21.7884 47.0085C22.0089 47.0085 22.0998 47.0317 22.0998 47.0753C22.0998 47.1188 21.8876 47.1885 21.6671 47.2902C21.2757 47.479 21.0966 47.5835 20.7466 47.8652L18.7043 49.4857V49.5031C20.0713 49.5641 20.3166 49.7616 21.0415 50.8826C21.3667 51.3995 21.7884 52.0326 22.301 52.3404C22.4636 52.445 22.5876 52.4885 22.5876 52.5205C22.5876 52.5408 22.5297 52.5553 22.4884 52.5553Z" fill="url(#paint3_linear_96_4436)"/>
<path d="M23.6225 48.2351C23.3469 47.7298 23.0051 47.3435 22.8177 47.2041C22.713 47.1373 22.6469 47.1199 22.6386 47.0763C22.6386 47.0241 22.6634 47.0095 22.7047 47.0095C22.9252 47.0095 23.2256 47.0415 23.4516 47.0415C23.6639 47.0415 23.8843 47.0095 24.1048 47.0095C24.2013 47.0095 24.2922 47.0095 24.3005 47.0676C24.3005 47.1025 24.2344 47.1199 24.1682 47.1722C24.1048 47.2244 24.0304 47.2999 24.0469 47.48C24.0552 47.5729 24.1599 47.814 24.397 48.2438L25.5766 50.387L26.6432 48.5197C26.8802 48.1073 27.0097 47.6601 27.018 47.5991C27.0345 47.3842 26.9436 47.2564 26.8223 47.2041C26.6845 47.146 26.5936 47.1112 26.5936 47.0676C26.5936 47.0357 26.6514 47.0095 26.701 47.0095C26.9105 47.0095 27.1227 47.0415 27.3349 47.0415C27.5389 47.0415 27.7428 47.0095 27.9551 47.0095C28.0019 47.0095 28.0433 47.0241 28.035 47.0618C28.035 47.0938 27.9606 47.1025 27.8228 47.2244C27.5885 47.4277 27.4149 47.6862 27.2605 47.9505L25.3974 51.1682C25.3644 51.2263 25.2265 51.5196 24.8379 51.9059C24.3639 52.385 23.8678 52.539 23.2256 52.5302L23.4847 51.6242C23.5012 51.5545 23.526 51.5196 23.5426 51.5196C23.5757 51.5196 23.5839 51.5283 23.6005 51.537C23.7135 51.7607 23.9422 51.8536 24.1682 51.8536C24.5596 51.8536 24.9261 51.5022 25.188 51.0666L23.6225 48.2351ZM32.9601 47.541C33.0262 47.753 33.1144 48.0986 33.1144 48.1305C33.1144 48.1567 33.0896 48.1654 33.0676 48.1654C33.0428 48.1654 33.0097 48.1218 32.9849 48.0812C32.5687 47.4452 31.6262 47.2564 30.5678 47.2564H29.5426V51.0637C29.5426 51.8013 29.6059 52.2834 29.9725 52.4547C30.0138 52.4722 30.0552 52.4983 30.0552 52.5215C30.0552 52.5477 30.0304 52.5564 29.9725 52.5564C29.8843 52.5564 29.7052 52.5331 29.2008 52.5331C28.7213 52.5331 28.4346 52.5564 28.363 52.5564C28.3216 52.5564 28.3051 52.5477 28.3051 52.5215C28.3051 52.507 28.3464 52.4896 28.3767 52.4809C28.8094 52.327 28.8425 51.81 28.8425 51.0724V47.6862C28.8425 47.4016 28.7681 47.2651 28.5338 47.1547C28.5008 47.146 28.4512 47.1286 28.4512 47.085C28.4512 47.0589 28.5008 47.0415 28.6386 47.0415H32.814L32.9601 47.541ZM36.0855 47.7878L35.1016 49.6407H37.006L36.0855 47.7878ZM35.0051 49.8556L34.4842 50.8952C34.3216 51.2118 34.1259 51.6561 34.1259 51.9901C34.1259 52.1382 34.2058 52.2747 34.3271 52.3676C34.4263 52.446 34.5559 52.4634 34.5559 52.5128C34.5559 52.5419 34.5063 52.5477 34.4346 52.5477C34.2389 52.5477 34.0515 52.5302 33.8641 52.5302C33.6684 52.5302 33.4672 52.5477 33.2715 52.5477C33.1971 52.5477 33.1227 52.5477 33.1227 52.507C33.1227 52.4547 33.2467 52.3937 33.2936 52.3415C33.6271 52.0075 33.9468 51.4412 34.1342 51.0724L36.2729 46.9224C36.2894 46.8876 36.306 46.873 36.3308 46.873H36.3473C36.3721 46.873 36.4052 46.905 36.4052 46.9224L38.8057 51.7955C38.9187 52.0249 39.1144 52.266 39.3184 52.4112C39.39 52.4634 39.4396 52.4896 39.4396 52.507C39.4396 52.5215 39.4314 52.5477 39.3569 52.5477C39.1227 52.5477 38.8471 52.5302 38.5935 52.5302C38.34 52.5302 37.9982 52.5477 37.7722 52.5477C37.7309 52.5477 37.7061 52.5419 37.7061 52.5215C37.7061 52.4722 37.7805 52.4634 37.8604 52.4199C37.9348 52.3763 38.0065 52.3008 38.0065 52.112C38.0065 51.8797 37.8273 51.4325 37.6151 50.9882L37.0887 49.8556H35.0051Z" fill="url(#paint4_linear_96_4436)"/>
<path d="M44.471 47.4704C44.0465 47.4791 43.7792 47.7695 43.7792 48.1993C43.7792 48.6785 44.0879 49.1518 44.3883 49.4858C44.8761 49.3493 45.2179 48.8353 45.2179 48.3125C45.2179 47.8305 44.9588 47.4529 44.471 47.4704ZM44.7135 52.4886C45.1793 52.4886 45.6258 52.2737 45.9675 51.9398C45.2427 51.3038 44.5344 50.6445 43.8922 49.9243C43.4926 50.1625 43.2087 50.5051 43.2087 51.0134C43.2087 51.8265 43.9721 52.4886 44.7135 52.4886ZM47.1719 49.7791C47.2215 50.328 46.8467 51.176 46.5463 51.5884C47.0672 52.0327 47.4475 52.3173 47.9546 52.4102C48.0263 52.4277 48.0594 52.4451 48.0594 52.4799C48.0594 52.5322 48.0015 52.5322 47.9546 52.5322H46.7723C46.6427 52.5322 46.2541 52.1547 46.1301 52.0676C45.6588 52.4625 45.0387 52.6919 44.4379 52.7006C43.567 52.7123 42.5086 52.2999 42.5086 51.2515C42.5086 50.5051 43.2169 50.0608 43.7792 49.7704C43.5008 49.4684 43.2886 49.0328 43.2886 48.6117C43.2886 47.8218 43.9418 47.2555 44.6253 47.2555C45.3088 47.2555 45.7718 47.5749 45.7718 48.2341C45.7718 49.0066 45.1049 49.3842 44.5095 49.6397C45.0718 50.2844 45.6919 50.874 46.3506 51.3996C46.4801 51.1934 46.5463 50.935 46.5463 50.7113C46.5463 50.2147 46.2845 49.9417 45.8848 49.8633C45.8462 49.8546 45.8297 49.8372 45.8297 49.8198C45.8297 49.7791 45.871 49.7791 45.9041 49.7791H47.1719Z" fill="url(#paint5_linear_96_4436)"/>
<path d="M44.471 47.4704C44.0465 47.4791 43.7792 47.7695 43.7792 48.1993C43.7792 48.6785 44.0879 49.1518 44.3883 49.4858C44.8761 49.3493 45.2179 48.8353 45.2179 48.3125C45.2179 47.8305 44.9588 47.4529 44.471 47.4704ZM44.7135 52.4886C45.1793 52.4886 45.6258 52.2737 45.9675 51.9398C45.2427 51.3038 44.5344 50.6445 43.8922 49.9243C43.4926 50.1625 43.2087 50.5051 43.2087 51.0134C43.2087 51.8265 43.9721 52.4886 44.7135 52.4886ZM47.1719 49.7791C47.2215 50.328 46.8467 51.176 46.5463 51.5884C47.0672 52.0327 47.4475 52.3173 47.9546 52.4102C48.0263 52.4277 48.0594 52.4451 48.0594 52.4799C48.0594 52.5322 48.0015 52.5322 47.9546 52.5322H46.7723C46.6427 52.5322 46.2541 52.1547 46.1301 52.0676C45.6588 52.4625 45.0387 52.6919 44.4379 52.7006C43.567 52.7123 42.5086 52.2999 42.5086 51.2515C42.5086 50.5051 43.2169 50.0608 43.7792 49.7704C43.5008 49.4684 43.2886 49.0328 43.2886 48.6117C43.2886 47.8218 43.9418 47.2555 44.6253 47.2555C45.3088 47.2555 45.7718 47.5749 45.7718 48.2341C45.7718 49.0066 45.1049 49.3842 44.5095 49.6397C45.0718 50.2844 45.6919 50.874 46.3506 51.3996C46.4801 51.1934 46.5463 50.935 46.5463 50.7113C46.5463 50.2147 46.2845 49.9417 45.8848 49.8633C45.8462 49.8546 45.8297 49.8372 45.8297 49.8198C45.8297 49.7791 45.871 49.7791 45.9041 49.7791H47.1719Z" fill="url(#paint6_linear_96_4436)"/>
<path d="M56.1028 47.0415H57.0316C57.1529 47.0415 57.1694 47.0531 57.1694 47.085C57.1612 47.1286 57.106 47.1286 57.0482 47.1635C56.8277 47.2912 56.8029 47.4974 56.8029 47.875V50.6629C56.8029 51.3483 56.8938 51.9233 56.9986 52.1876C57.095 52.4286 57.3072 52.4286 57.3072 52.507C57.3072 52.5331 57.2604 52.5564 57.2025 52.5564C57.106 52.5564 56.8525 52.5331 56.4777 52.5331C56.0477 52.5331 55.7197 52.5564 55.6729 52.5564C55.6233 52.5564 55.615 52.5215 55.615 52.507C55.615 52.4809 55.7776 52.4547 55.8824 52.3328C56.0312 52.1788 56.1028 51.9233 56.1028 51.2641V47.6252H56.0891L53.8897 52.3763C53.8318 52.507 53.7684 52.5999 53.7106 52.5999C53.6389 52.5999 53.6058 52.4722 53.548 52.3415L51.4313 47.6862H51.4065H51.4147V51.1595C51.4147 52.0336 51.6022 52.2137 51.8557 52.4112C51.9191 52.4634 51.9522 52.4896 51.9522 52.5215C51.9522 52.5477 51.9191 52.5564 51.7978 52.5564C51.7152 52.5564 51.5801 52.5331 51.2852 52.5331C50.8856 52.5331 50.7312 52.5564 50.6513 52.5564C50.5852 52.5564 50.5604 52.5419 50.5604 52.5128C50.5604 52.4896 50.643 52.446 50.7009 52.4025C51.0647 52.0859 51.1557 51.537 51.1557 50.9097V48.0376C51.1557 47.4713 51.0895 47.2912 50.8305 47.146C50.7726 47.1112 50.723 47.0938 50.723 47.0531C50.7312 47.0183 50.8305 47.0095 50.8553 47.0095C51.0317 47.0095 51.3431 47.0415 51.5553 47.0415H51.9136L54.0192 51.4586L56.1028 47.0415ZM60.5098 47.7878L59.5231 49.6407H61.4276L60.5098 47.7878ZM59.4267 49.8556L58.9058 50.8952C58.7432 51.2118 58.5475 51.6561 58.5475 51.9901C58.5475 52.1382 58.6274 52.2747 58.7514 52.3676C58.8479 52.446 58.9774 52.4634 58.9774 52.5128C58.9774 52.5419 58.9306 52.5477 58.8562 52.5477C58.6605 52.5477 58.4731 52.5302 58.2856 52.5302C58.09 52.5302 57.886 52.5477 57.6931 52.5477C57.6187 52.5477 57.547 52.5477 57.547 52.507C57.547 52.4547 57.6683 52.3937 57.7179 52.3415C58.0514 52.0075 58.3683 51.4412 58.5557 51.0724L60.6972 46.9224C60.711 46.8876 60.7275 46.873 60.7523 46.873H60.7689C60.7937 46.873 60.8268 46.905 60.8268 46.9224L63.2273 51.7955C63.3403 52.0249 63.536 52.266 63.7399 52.4112C63.8143 52.4634 63.8612 52.4896 63.8612 52.507C63.8612 52.5215 63.8529 52.5477 63.7813 52.5477C63.5442 52.5477 63.2659 52.5302 63.0151 52.5302C62.7615 52.5302 62.4225 52.5477 62.1938 52.5477C62.1524 52.5477 62.1276 52.5419 62.1276 52.5215C62.1276 52.4722 62.202 52.4634 62.282 52.4199C62.3564 52.3763 62.4308 52.3008 62.4308 52.112C62.4308 51.8797 62.2516 51.4325 62.0394 50.9882L61.5103 49.8556H59.4267Z" fill="url(#paint7_linear_96_4436)"/>
<path d="M73.0515 52.5553C72.9771 52.5553 72.8476 52.5321 72.3901 52.5321C72.1889 52.5321 71.8802 52.5553 71.7727 52.5553L70.5683 50.7054C70.301 50.2843 69.86 49.7006 69.3226 49.7006C69.0139 49.7006 68.7383 49.8545 68.7383 50.232V51.263C68.7383 51.7073 68.7851 52.2911 69.0552 52.4101C69.16 52.4537 69.2344 52.4972 69.2344 52.5205C69.2344 52.5466 69.2096 52.5553 69.1517 52.5553C68.9973 52.5553 68.7769 52.5321 68.3883 52.5321C67.9969 52.5321 67.8177 52.5553 67.7185 52.5553C67.6303 52.5553 67.5807 52.5466 67.5807 52.5205C67.5807 52.506 67.6303 52.4711 67.7516 52.4188C67.9555 52.3317 68.0382 51.6899 68.0382 51.263V50.232C68.0382 49.8545 67.7599 49.7006 67.4512 49.7006C66.9137 49.7006 66.4755 50.2843 66.2054 50.7054L65.001 52.5553C64.8963 52.5553 64.5876 52.5321 64.3837 52.5321C63.9262 52.5321 63.7966 52.5553 63.7222 52.5553C63.6836 52.5553 63.6257 52.5408 63.6257 52.5205C63.6257 52.4885 63.747 52.445 63.9096 52.3404C64.4223 52.0326 64.8467 51.3995 65.1719 50.8826C65.8968 49.7616 66.1393 49.5641 67.5091 49.5031V49.4857L65.4641 47.8652C65.1168 47.5835 64.9349 47.479 64.5463 47.2902C64.3258 47.1885 64.1136 47.1188 64.1136 47.0753C64.1136 47.0317 64.2045 47.0085 64.4223 47.0085C64.6345 47.0085 64.855 47.0404 65.0672 47.0404C65.2215 47.0404 65.3841 47.0085 65.5385 47.0085C65.6101 47.0085 65.6763 47.0259 65.6763 47.0753C65.6763 47.1101 65.6267 47.1276 65.5798 47.1711C65.5302 47.206 65.4889 47.2641 65.4889 47.3599C65.4889 47.5574 66.0263 48.0453 66.6133 48.5099L68.0382 49.6309V48.1556C68.0382 47.5661 67.9803 47.2466 67.7351 47.1188C67.6937 47.1014 67.6799 47.0666 67.6799 47.0521C67.6799 47.0317 67.7047 47.0085 67.7681 47.0085C67.8343 47.0085 68.0851 47.0404 68.3883 47.0404C68.5729 47.0404 68.7713 47.0085 68.956 47.0085C69.0221 47.0085 69.0387 47.0317 69.0387 47.0579C69.0387 47.0927 68.9891 47.1276 68.9229 47.1624C68.7631 47.2292 68.7383 47.5835 68.7383 47.8739V49.6309L70.1604 48.5099C70.7475 48.0453 71.2849 47.5574 71.2849 47.3599C71.2849 47.2641 71.2435 47.206 71.1939 47.1711C71.1471 47.1276 71.0975 47.1101 71.0975 47.0753C71.0975 47.0259 71.1609 47.0085 71.2353 47.0085C71.3896 47.0085 71.5522 47.0404 71.7093 47.0404C71.9188 47.0404 72.1393 47.0085 72.3515 47.0085C72.5692 47.0085 72.6602 47.0317 72.6602 47.0753C72.6602 47.1188 72.4479 47.1885 72.2302 47.2902C71.8389 47.479 71.6597 47.5835 71.3097 47.8652L69.2674 49.4857V49.5031C70.6345 49.5641 70.877 49.7616 71.6018 50.8826C71.927 51.3995 72.3515 52.0326 72.8641 52.3404C73.0267 52.445 73.148 52.4885 73.148 52.5205C73.148 52.5408 73.0929 52.5553 73.0515 52.5553Z" fill="url(#paint8_linear_96_4436)"/>
<path d="M73.0515 52.5553C72.9771 52.5553 72.8476 52.5321 72.3901 52.5321C72.1889 52.5321 71.8802 52.5553 71.7727 52.5553L70.5683 50.7054C70.301 50.2843 69.86 49.7006 69.3226 49.7006C69.0139 49.7006 68.7383 49.8545 68.7383 50.232V51.263C68.7383 51.7073 68.7851 52.2911 69.0552 52.4101C69.16 52.4537 69.2344 52.4972 69.2344 52.5205C69.2344 52.5466 69.2096 52.5553 69.1517 52.5553C68.9973 52.5553 68.7769 52.5321 68.3883 52.5321C67.9969 52.5321 67.8177 52.5553 67.7185 52.5553C67.6303 52.5553 67.5807 52.5466 67.5807 52.5205C67.5807 52.506 67.6303 52.4711 67.7516 52.4188C67.9555 52.3317 68.0382 51.6899 68.0382 51.263V50.232C68.0382 49.8545 67.7599 49.7006 67.4512 49.7006C66.9137 49.7006 66.4755 50.2843 66.2054 50.7054L65.001 52.5553C64.8963 52.5553 64.5876 52.5321 64.3837 52.5321C63.9262 52.5321 63.7966 52.5553 63.7222 52.5553C63.6836 52.5553 63.6257 52.5408 63.6257 52.5205C63.6257 52.4885 63.747 52.445 63.9096 52.3404C64.4223 52.0326 64.8467 51.3995 65.1719 50.8826C65.8968 49.7616 66.1393 49.5641 67.5091 49.5031V49.4857L65.4641 47.8652C65.1168 47.5835 64.9349 47.479 64.5463 47.2902C64.3258 47.1885 64.1136 47.1188 64.1136 47.0753C64.1136 47.0317 64.2045 47.0085 64.4223 47.0085C64.6345 47.0085 64.855 47.0404 65.0672 47.0404C65.2215 47.0404 65.3841 47.0085 65.5385 47.0085C65.6101 47.0085 65.6763 47.0259 65.6763 47.0753C65.6763 47.1101 65.6267 47.1276 65.5798 47.1711C65.5302 47.206 65.4889 47.2641 65.4889 47.3599C65.4889 47.5574 66.0263 48.0453 66.6133 48.5099L68.0382 49.6309V48.1556C68.0382 47.5661 67.9803 47.2466 67.7351 47.1188C67.6937 47.1014 67.6799 47.0666 67.6799 47.0521C67.6799 47.0317 67.7047 47.0085 67.7681 47.0085C67.8343 47.0085 68.0851 47.0404 68.3883 47.0404C68.5729 47.0404 68.7713 47.0085 68.956 47.0085C69.0221 47.0085 69.0387 47.0317 69.0387 47.0579C69.0387 47.0927 68.9891 47.1276 68.9229 47.1624C68.7631 47.2292 68.7383 47.5835 68.7383 47.8739V49.6309L70.1604 48.5099C70.7475 48.0453 71.2849 47.5574 71.2849 47.3599C71.2849 47.2641 71.2435 47.206 71.1939 47.1711C71.1471 47.1276 71.0975 47.1101 71.0975 47.0753C71.0975 47.0259 71.1609 47.0085 71.2353 47.0085C71.3896 47.0085 71.5522 47.0404 71.7093 47.0404C71.9188 47.0404 72.1393 47.0085 72.3515 47.0085C72.5692 47.0085 72.6602 47.0317 72.6602 47.0753C72.6602 47.1188 72.4479 47.1885 72.2302 47.2902C71.8389 47.479 71.6597 47.5835 71.3097 47.8652L69.2674 49.4857V49.5031C70.6345 49.5641 70.877 49.7616 71.6018 50.8826C71.927 51.3995 72.3515 52.0326 72.8641 52.3404C73.0267 52.445 73.148 52.4885 73.148 52.5205C73.148 52.5408 73.0929 52.5553 73.0515 52.5553Z" fill="url(#paint9_linear_96_4436)"/>
<path d="M74.1856 48.2352C73.9073 47.7299 73.5655 47.3436 73.3781 47.2042C73.2734 47.1374 73.2072 47.12 73.199 47.0765C73.199 47.0242 73.2238 47.0097 73.2651 47.0097C73.4856 47.0097 73.786 47.0416 74.0148 47.0416C74.227 47.0416 74.4447 47.0097 74.6652 47.0097C74.7617 47.0097 74.8526 47.0097 74.8609 47.0678C74.8609 47.1026 74.7947 47.12 74.7313 47.1723C74.6652 47.2246 74.5908 47.3001 74.6101 47.4801C74.6156 47.5731 74.7231 47.8141 74.9601 48.2439L76.1397 50.3871L77.2035 48.5198C77.4406 48.1074 77.5701 47.6602 77.5784 47.5992C77.5949 47.3843 77.5067 47.2565 77.3827 47.2042C77.2449 47.1462 77.1567 47.1113 77.1567 47.0678C77.1567 47.0358 77.2146 47.0097 77.2614 47.0097C77.4736 47.0097 77.6859 47.0416 77.8981 47.0416C78.0993 47.0416 78.3032 47.0097 78.5154 47.0097C78.5623 47.0097 78.6064 47.0242 78.5981 47.0619C78.5981 47.0939 78.5237 47.1026 78.3859 47.2246C78.1489 47.4279 77.978 47.6863 77.8237 47.9506L75.9605 51.1683C75.9275 51.2264 75.7869 51.5197 75.3983 51.906C74.927 52.3852 74.4309 52.5391 73.786 52.5304L74.0478 51.6243C74.0616 51.5546 74.0864 51.5197 74.103 51.5197C74.136 51.5197 74.1443 51.5285 74.1608 51.5372C74.2738 51.7608 74.5026 51.8537 74.7313 51.8537C75.1199 51.8537 75.4865 51.5023 75.7483 51.0667L74.1856 48.2352ZM83.5205 47.5411C83.5866 47.7531 83.6776 48.0987 83.6776 48.1307C83.6776 48.1568 83.6528 48.1655 83.628 48.1655C83.6031 48.1655 83.5701 48.1219 83.5453 48.0813C83.1291 47.4453 82.1865 47.2565 81.1282 47.2565H80.1029V51.0638C80.1029 51.8014 80.1663 52.2835 80.5356 52.4549C80.5742 52.4723 80.6156 52.4984 80.6156 52.5217C80.6156 52.5478 80.5908 52.5565 80.5356 52.5565C80.4447 52.5565 80.2655 52.5333 79.7612 52.5333C79.2816 52.5333 78.9977 52.5565 78.9233 52.5565C78.882 52.5565 78.8654 52.5478 78.8654 52.5217C78.8654 52.5071 78.9068 52.4897 78.9399 52.481C79.3698 52.3271 79.4029 51.8102 79.4029 51.0725V47.6863C79.4029 47.4017 79.3312 47.2652 79.0942 47.1549C79.0611 47.1462 79.0115 47.1287 79.0115 47.0852C79.0115 47.059 79.0611 47.0416 79.1989 47.0416H83.3744L83.5205 47.5411ZM86.6486 47.788L85.6619 49.6408H87.5664L86.6486 47.788ZM85.5655 49.8557L85.0446 50.8954C84.882 51.2119 84.6863 51.6562 84.6863 51.9902C84.6863 52.1383 84.7662 52.2748 84.8902 52.3677C84.9867 52.4461 85.1162 52.4636 85.1162 52.5129C85.1162 52.542 85.0694 52.5478 84.995 52.5478C84.7993 52.5478 84.6119 52.5304 84.4245 52.5304C84.2288 52.5304 84.0248 52.5478 83.8319 52.5478C83.7575 52.5478 83.6858 52.5478 83.6858 52.5071C83.6858 52.4549 83.8071 52.3939 83.8567 52.3416C84.1902 52.0076 84.5071 51.4413 84.6945 51.0725L86.836 46.9225C86.8498 46.8877 86.8663 46.8732 86.8911 46.8732H86.9077C86.9325 46.8732 86.9656 46.9051 86.9656 46.9225L89.3661 51.7956C89.4791 52.0251 89.6748 52.2661 89.8787 52.4113C89.9531 52.4636 90 52.4897 90 52.5071C90 52.5217 89.9917 52.5478 89.9201 52.5478C89.6831 52.5478 89.4047 52.5304 89.1539 52.5304C88.9003 52.5304 88.5613 52.5478 88.3326 52.5478C88.2912 52.5478 88.2664 52.542 88.2664 52.5217C88.2664 52.4723 88.3408 52.4636 88.4208 52.42C88.4952 52.3765 88.5696 52.3009 88.5696 52.1122C88.5696 51.8798 88.3904 51.4326 88.1782 50.9883L87.6491 49.8557H85.5655Z" fill="url(#paint10_linear_96_4436)"/>
<mask id="mask0_96_4436" style="mask-type:luminance" maskUnits="userSpaceOnUse" x="15" y="0" width="60" height="38">
<path d="M15.2891 0H74.5557V37.0531H15.2891V0Z" fill="white"/>
</mask>
<g mask="url(#mask0_96_4436)">
<mask id="mask1_96_4436" style="mask-type:luminance" maskUnits="userSpaceOnUse" x="15" y="0" width="60" height="38">
<path d="M64.7359 0.694605C63.4819 0.694605 61.6684 0.594401 59.2954 0.402344C58.3445 2.8963 57.5177 4.86419 56.8259 6.30323L54.7451 10.5925L54.1663 11.781L53.1576 13.8714L52.5733 15.0822L45.5095 29.634C43.7676 26.2271 42.0313 22.7283 40.3253 19.1349C39.5839 17.5845 38.9059 16.151 38.2775 14.8456C38.0819 14.4253 37.8889 14.0189 37.6988 13.6265C37.3322 12.8499 36.9877 12.1262 36.6707 11.447C36.4723 11.0267 36.2821 10.6287 36.0975 10.2501C34.6368 7.18836 33.7493 5.29006 33.4186 4.56358C32.9721 3.60886 32.3933 2.22549 31.6685 0.402344C29.6483 0.594401 27.7659 0.694605 26.0158 0.694605C24.4779 0.694605 22.2344 0.594401 19.2771 0.402344V1.93602C19.9331 2.09189 20.4264 2.19766 20.7654 2.24776C23.1026 2.59847 24.6046 2.8963 25.2744 3.16073C25.6271 3.29433 25.8807 3.52258 26.0433 3.84546C26.2059 4.16555 26.2831 4.95605 26.2831 6.22529L26.3134 9.38728C26.3134 10.7289 26.3051 12.0677 26.2969 13.4288C27.2229 13.4149 28.1186 13.3008 29.0061 13.1004C29.0998 13.0781 29.1908 13.0586 29.2817 13.0308L29.199 6.95177C30.0644 8.68307 30.9188 10.3865 31.7456 12.0455C31.9579 12.4602 32.1618 12.8721 32.3658 13.2869C32.6469 13.8575 32.9307 14.4253 33.2119 14.9876C33.4103 15.3884 33.6087 15.7864 33.7989 16.1789C37.5803 23.8305 40.8958 30.7641 43.7456 36.9628H45.2559C45.9973 35.2315 47.1466 32.732 48.6983 29.4614C51.2945 24.0031 53.4608 19.4717 55.2054 15.8643C55.401 15.4524 55.5912 15.0516 55.7841 14.6675C56.0928 14.0273 56.3905 13.4205 56.6661 12.8443C56.8618 12.4296 57.0602 12.0399 57.2449 11.6613C58.2591 9.57934 59.0418 8.01226 59.593 6.95177V12.7163C59.7281 12.7664 59.8549 12.8081 59.9872 12.8499C61.2164 13.2368 62.5062 13.4344 63.8043 13.4344C63.898 12.7942 64.1791 12.2375 64.587 11.8117L64.6587 6.24478V5.91077C64.6587 4.50791 64.8847 3.6367 65.3505 3.28877C65.6316 3.06053 67.0014 2.7126 69.457 2.22549C69.7244 2.16983 70.1212 2.07797 70.6504 1.93602V0.402344C67.875 0.594401 65.9017 0.694605 64.7359 0.694605ZM43.7456 8.86956C43.0538 9.11728 42.4557 9.58768 42.0451 10.1945H42.0396C41.4746 10.2362 40.0497 10.3949 37.9275 11.0351L39.0134 13.3286C39.0189 13.3203 39.0272 13.3203 39.0327 13.3203L41.8274 10.5563C41.56 11.0546 41.4112 11.6335 41.4112 12.2375C41.4112 12.4157 41.425 12.6021 41.4525 12.7747C41.7061 14.4977 43.1806 15.8226 44.9665 15.8226C46.7525 15.8226 48.227 14.4977 48.4805 12.7747C48.5081 12.6021 48.5219 12.4157 48.5219 12.2375C48.5219 11.6335 48.3758 11.0629 48.114 10.5647L50.9004 13.3203C51.2035 13.3843 51.5232 13.4567 51.8678 13.5346L51.9863 13.2924L52.9316 11.3329C50.2995 10.4366 48.5357 10.2362 47.888 10.1945C47.4773 9.58768 46.8793 9.11728 46.1875 8.86956C45.8071 8.72482 45.3965 8.64688 44.9665 8.64688C44.5366 8.64688 44.1259 8.72482 43.7456 8.86956ZM65.8879 12.4602C65.4001 12.7218 65.0749 13.2368 65.0749 13.9048C65.0749 14.2472 65.1603 14.4058 65.3091 14.6814C65.0749 14.7036 64.8213 14.7259 64.554 14.7315C63.2338 14.8038 61.4975 14.7036 59.593 14.1052C59.1631 13.9688 58.7331 13.8074 58.2867 13.6153L57.8429 13.4149C57.8429 13.4205 57.8374 13.4205 57.8374 13.4288C57.6803 13.7489 57.2228 14.6981 57.0326 15.0822C57.4626 15.2186 57.8788 15.3327 58.2867 15.4246C58.7331 15.5387 59.1686 15.6222 59.593 15.7001C61.5471 16.0508 63.2614 16.087 64.554 16.0146C65.0528 15.9868 65.491 15.9423 65.8576 15.9005V16.5769L65.6123 17.2561L64.5595 20.148C64.554 19.2518 64.554 18.3165 64.554 17.334C64.2067 17.3535 63.8346 17.3618 63.4378 17.3618C62.1617 17.3618 60.8691 17.2561 59.593 17.0334V29.6173C59.593 31.4488 59.5434 32.7097 59.4387 33.4C59.4166 33.4445 59.4029 33.4946 59.4166 33.5447C59.4166 33.5781 59.4304 33.6227 59.4607 33.6505C61.0124 35.6963 63.6996 37.0435 66.7616 37.0435C68.1589 37.0435 69.4791 36.7652 70.6504 36.2586C71.1079 36.061 71.5461 35.8299 71.954 35.5683C72.7864 35.0478 73.5002 34.3909 74.0652 33.6505C74.1837 33.4946 74.0707 33.2719 73.8805 33.2719H73.7482L67.7703 16.8552L67.3183 15.6222C67.9605 15.3661 68.4207 14.6981 68.4207 13.9048C68.4207 12.8944 67.6711 12.2375 66.7478 12.2375C66.4364 12.2375 66.1415 12.3182 65.8879 12.4602ZM65.8659 13.9632V13.9493C66.6128 13.671 66.7616 12.9863 66.7616 12.9863C66.7616 12.9863 66.9104 13.6793 67.6711 13.9549C66.9104 14.2332 66.7616 14.9235 66.7616 14.9235C66.7616 14.9235 66.6128 14.2416 65.8659 13.9632ZM67.0096 17.0556V16.2067L67.299 17L73.2163 33.2719H67.0096V17.0556ZM64.5595 21.5787L65.8576 18.002L66.1553 17.192V17.1837L66.5135 16.2067V33.2719H60.3069L64.5595 21.5787ZM21.5151 13.9048C21.5151 14.6981 21.9726 15.3661 22.6148 15.6222L16.1876 33.2719H16.0525C15.8569 33.2719 15.7494 33.4946 15.8624 33.6505C16.9152 35.0255 18.4724 36.0888 20.3134 36.6371C21.2119 36.8988 22.171 37.0435 23.1715 37.0435C25.889 37.0435 28.3171 35.9802 29.9101 34.3074C30.1168 34.0986 30.307 33.8787 30.4751 33.6505C30.5936 33.4946 30.4806 33.2719 30.2849 33.2719H30.1499L29.5518 31.6214C29.5435 31.4711 29.5435 31.3152 29.5435 31.151L29.3451 17.1837C28.4356 17.2978 27.5123 17.3535 26.6 17.3535H26.2693C26.2555 19.0375 26.2335 20.7326 26.2142 22.4499L23.8137 15.8643C24.1306 15.9089 24.5192 15.959 24.9795 15.9868C25.3653 16.0146 25.8035 16.0369 26.2831 16.0369C27.165 16.0508 28.1958 16.0091 29.3258 15.8588C29.7475 15.8003 30.1774 15.7363 30.6294 15.6444C31.0539 15.5665 31.4838 15.4747 31.9275 15.3605C31.7456 14.982 31.4425 14.3613 31.1669 13.8074L30.6101 14.005C30.1637 14.1609 29.7282 14.2833 29.3038 14.3835C28.2041 14.6396 27.1788 14.7398 26.2914 14.7454C25.8173 14.7621 25.3819 14.7454 24.985 14.7176C24.8582 14.7036 24.7314 14.6981 24.6184 14.6814C24.7728 14.4058 24.8582 14.2472 24.8582 13.9048C24.8582 12.8944 24.1113 12.2375 23.1853 12.2375C22.262 12.2375 21.5151 12.8944 21.5151 13.9048ZM22.262 13.9549C23.0254 13.6793 23.1715 12.9863 23.1715 12.9863C23.1715 12.9863 23.3203 13.6793 24.0837 13.9549C23.3203 14.2332 23.1715 14.9235 23.1715 14.9235C23.1715 14.9235 23.0254 14.2332 22.262 13.9549ZM23.4195 16.2067L26.1921 23.8305L29.629 33.2719H23.4195V16.2067ZM22.9262 16.2067V33.2719H16.7085L22.9262 16.2067Z" fill="white"/>
</mask>
<g mask="url(#mask1_96_4436)">
<path d="M15.75 0.402344V37.0435H74.1843V0.402344H15.75Z" fill="url(#paint11_linear_96_4436)"/>
</g>
</g>
<defs>
<linearGradient id="paint0_linear_96_4436" x1="11.999" y1="59.7527" x2="79.5076" y2="56.3386" gradientUnits="userSpaceOnUse">
<stop stop-color="#04254E"/>
<stop offset="1" stop-color="#12418A"/>
</linearGradient>
<linearGradient id="paint1_linear_96_4436" x1="1.81044e-08" y1="52.2364" x2="91.0217" y2="47.9647" gradientUnits="userSpaceOnUse">
<stop stop-color="#04244D"/>
<stop offset="1" stop-color="#12418A"/>
</linearGradient>
<linearGradient id="paint2_linear_96_4436" x1="1.81044e-08" y1="52.2364" x2="91.0217" y2="47.9647" gradientUnits="userSpaceOnUse">
<stop stop-color="#04244D"/>
<stop offset="1" stop-color="#12418A"/>
</linearGradient>
<linearGradient id="paint3_linear_96_4436" x1="1.81044e-08" y1="52.2364" x2="91.0217" y2="47.9647" gradientUnits="userSpaceOnUse">
<stop stop-color="#04244D"/>
<stop offset="1" stop-color="#12418A"/>
</linearGradient>
<linearGradient id="paint4_linear_96_4436" x1="1.81044e-08" y1="52.2364" x2="91.0217" y2="47.9647" gradientUnits="userSpaceOnUse">
<stop stop-color="#04244D"/>
<stop offset="1" stop-color="#12418A"/>
</linearGradient>
<linearGradient id="paint5_linear_96_4436" x1="1.81044e-08" y1="52.2364" x2="91.0217" y2="47.9647" gradientUnits="userSpaceOnUse">
<stop stop-color="#04244D"/>
<stop offset="1" stop-color="#12418A"/>
</linearGradient>
<linearGradient id="paint6_linear_96_4436" x1="1.81044e-08" y1="52.2364" x2="91.0217" y2="47.9647" gradientUnits="userSpaceOnUse">
<stop stop-color="#04244D"/>
<stop offset="1" stop-color="#12418A"/>
</linearGradient>
<linearGradient id="paint7_linear_96_4436" x1="1.81044e-08" y1="52.2364" x2="91.0217" y2="47.9647" gradientUnits="userSpaceOnUse">
<stop stop-color="#04244D"/>
<stop offset="1" stop-color="#12418A"/>
</linearGradient>
<linearGradient id="paint8_linear_96_4436" x1="1.81044e-08" y1="52.2364" x2="91.0217" y2="47.9647" gradientUnits="userSpaceOnUse">
<stop stop-color="#04244D"/>
<stop offset="1" stop-color="#12418A"/>
</linearGradient>
<linearGradient id="paint9_linear_96_4436" x1="1.81044e-08" y1="52.2364" x2="91.0217" y2="47.9647" gradientUnits="userSpaceOnUse">
<stop stop-color="#04244D"/>
<stop offset="1" stop-color="#12418A"/>
</linearGradient>
<linearGradient id="paint10_linear_96_4436" x1="1.81044e-08" y1="52.2364" x2="91.0217" y2="47.9647" gradientUnits="userSpaceOnUse">
<stop stop-color="#04244D"/>
<stop offset="1" stop-color="#12418A"/>
</linearGradient>
<linearGradient id="paint11_linear_96_4436" x1="15.7505" y1="18.7229" x2="74.1846" y2="18.7229" gradientUnits="userSpaceOnUse">
<stop stop-color="#02224B"/>
<stop offset="1" stop-color="#4870AF"/>
</linearGradient>
</defs>
</svg>
