<svg width="92" height="60" viewBox="0 0 92 60" fill="none" xmlns="http://www.w3.org/2000/svg">
<path d="M6.54249 47.1658H7.47129C7.59256 47.1658 7.60909 47.177 7.60909 47.2077C7.60083 47.2495 7.54295 47.2495 7.48783 47.283C7.26734 47.4059 7.24254 47.604 7.24254 47.9669V50.6466C7.24254 51.3054 7.33349 51.8581 7.43822 52.1121C7.53744 52.3438 7.7469 52.3438 7.7469 52.4191C7.7469 52.4443 7.69729 52.4666 7.64217 52.4666C7.54295 52.4666 7.29214 52.4443 6.91732 52.4443C6.48461 52.4443 6.15939 52.4666 6.11254 52.4666C6.06293 52.4666 6.05466 52.4331 6.05466 52.4191C6.05466 52.394 6.21727 52.3689 6.32476 52.2516C6.47083 52.1037 6.54249 51.8581 6.54249 51.2244V47.7269H6.52595L4.32935 52.2935C4.27147 52.4191 4.20808 52.5085 4.15021 52.5085C4.07579 52.5085 4.04548 52.3856 3.9876 52.26L1.87092 47.7855H1.84612H1.85439V51.1239C1.85439 51.9641 2.0418 52.1372 2.29536 52.327C2.35875 52.3773 2.39182 52.4024 2.39182 52.4331C2.39182 52.4582 2.35875 52.4666 2.23748 52.4666C2.15756 52.4666 2.017 52.4443 1.72485 52.4443C1.32522 52.4443 1.17088 52.4666 1.09095 52.4666C1.0248 52.4666 1 52.4526 1 52.4247C1 52.4024 1.08268 52.3605 1.1378 52.3186C1.50436 52.0144 1.59531 51.4868 1.59531 50.8839V48.1232C1.59531 47.5789 1.52917 47.4059 1.2701 47.2663C1.21222 47.2328 1.16261 47.216 1.16261 47.177C1.17088 47.1435 1.2701 47.1351 1.29215 47.1351C1.47129 47.1351 1.78273 47.1658 1.99219 47.1658H2.35048L4.45889 51.4115L6.54249 47.1658ZM10.9467 47.8832L9.96279 49.6641H11.8672L10.9467 47.8832ZM9.86633 49.8706L9.34543 50.8699C9.18006 51.1742 8.98714 51.6013 8.98714 51.9223C8.98714 52.0646 9.06706 52.1958 9.18833 52.2851C9.28755 52.3605 9.41709 52.3773 9.41709 52.4247C9.41709 52.4526 9.36748 52.4582 9.29582 52.4582C9.10014 52.4582 8.91272 52.4415 8.72531 52.4415C8.52963 52.4415 8.32568 52.4582 8.13275 52.4582C8.05834 52.4582 7.98392 52.4582 7.98392 52.4191C7.98392 52.3689 8.10795 52.3103 8.1548 52.26C8.48829 51.939 8.80799 51.3947 8.99265 51.0402L11.1341 47.0514C11.1507 47.0179 11.1672 47.0039 11.192 47.0039H11.2085C11.2333 47.0039 11.2637 47.0346 11.2637 47.0514L13.667 51.7352C13.78 51.9558 13.9757 52.1874 14.1796 52.327C14.2513 52.3773 14.3009 52.4024 14.3009 52.4191C14.3009 52.4331 14.2926 52.4582 14.2182 52.4582C13.9839 52.4582 13.7056 52.4415 13.4548 52.4415C13.2012 52.4415 12.8594 52.4582 12.6334 52.4582C12.5921 52.4582 12.5673 52.4526 12.5673 52.4331C12.5673 52.3856 12.639 52.3773 12.7216 52.3354C12.796 52.2935 12.8677 52.2209 12.8677 52.0395C12.8677 51.8162 12.6886 51.3863 12.4763 50.9593L11.9499 49.8706H9.86633Z" fill="white" stroke="white" stroke-width="0.17639" stroke-miterlimit="10"/>
<path d="M23.4895 52.4662C23.4178 52.4662 23.2855 52.4439 22.8308 52.4439C22.6268 52.4439 22.3181 52.4662 22.2134 52.4662L21.009 50.6882C20.7389 50.2834 20.3007 49.7223 19.7632 49.7223C19.4546 49.7223 19.1762 49.8703 19.1762 50.2332V51.2241C19.1762 51.6512 19.2258 52.2122 19.4931 52.3267C19.6006 52.3686 19.6723 52.4104 19.6723 52.4328C19.6723 52.4579 19.6475 52.4662 19.5924 52.4662C19.438 52.4662 19.2175 52.4439 18.8262 52.4439C18.4348 52.4439 18.2584 52.4662 18.1592 52.4662C18.071 52.4662 18.0214 52.4579 18.0214 52.4328C18.0214 52.4188 18.071 52.3853 18.1923 52.3351C18.3962 52.2513 18.4761 51.6344 18.4761 51.2241V50.2332C18.4761 49.8703 18.2005 49.7223 17.8919 49.7223C17.3544 49.7223 16.9134 50.2834 16.6461 50.6882L15.4417 52.4662C15.3342 52.4662 15.0255 52.4439 14.8216 52.4439C14.3668 52.4439 14.2373 52.4662 14.1629 52.4662C14.1215 52.4662 14.0664 52.4523 14.0664 52.4328C14.0664 52.402 14.1877 52.3602 14.3503 52.2597C14.8629 51.9638 15.2874 51.3553 15.6126 50.8584C16.3374 49.781 16.58 49.5912 17.947 49.5325V49.5158L15.9047 47.9582C15.5547 47.6875 15.3755 47.587 14.9842 47.4055C14.7665 47.3078 14.5542 47.2408 14.5542 47.199C14.5542 47.1571 14.6424 47.1348 14.8629 47.1348C15.0751 47.1348 15.2929 47.1655 15.5051 47.1655C15.6594 47.1655 15.822 47.1348 15.9791 47.1348C16.0508 47.1348 16.1169 47.1515 16.1169 47.199C16.1169 47.2325 16.0673 47.2492 16.0177 47.2911C15.9709 47.3246 15.9295 47.3804 15.9295 47.4725C15.9295 47.6623 16.467 48.1313 17.0512 48.5779L18.4761 49.6554V48.2374C18.4761 47.6707 18.421 47.3637 18.1757 47.2408C18.1344 47.2241 18.1179 47.1906 18.1179 47.1766C18.1179 47.1571 18.1427 47.1348 18.2088 47.1348C18.2722 47.1348 18.5258 47.1655 18.8262 47.1655C19.0136 47.1655 19.2093 47.1348 19.3967 47.1348C19.4628 47.1348 19.4794 47.1571 19.4794 47.1822C19.4794 47.2157 19.4297 47.2492 19.3636 47.2827C19.201 47.3469 19.1762 47.6875 19.1762 47.9666V49.6554L20.6011 48.5779C21.1881 48.1313 21.7256 47.6623 21.7256 47.4725C21.7256 47.3804 21.6842 47.3246 21.6346 47.2911C21.585 47.2492 21.5382 47.2325 21.5382 47.199C21.5382 47.1515 21.6015 47.1348 21.676 47.1348C21.8303 47.1348 21.9929 47.1655 22.1473 47.1655C22.3595 47.1655 22.58 47.1348 22.7894 47.1348C23.0099 47.1348 23.1009 47.1571 23.1009 47.199C23.1009 47.2408 22.8886 47.3078 22.6682 47.4055C22.2768 47.587 22.0976 47.6875 21.7476 47.9582L19.7054 49.5158V49.5325C21.0724 49.5912 21.3177 49.781 22.0425 50.8584C22.3677 51.3553 22.7894 51.9638 23.3021 52.2597C23.4647 52.3602 23.5887 52.402 23.5887 52.4328C23.5887 52.4523 23.5308 52.4662 23.4895 52.4662Z" fill="white"/>
<path d="M23.4895 52.4662C23.4178 52.4662 23.2855 52.4439 22.8308 52.4439C22.6268 52.4439 22.3181 52.4662 22.2134 52.4662L21.009 50.6882C20.7389 50.2834 20.3007 49.7223 19.7632 49.7223C19.4546 49.7223 19.1762 49.8703 19.1762 50.2332V51.2241C19.1762 51.6512 19.2258 52.2122 19.4931 52.3267C19.6006 52.3686 19.6723 52.4104 19.6723 52.4328C19.6723 52.4579 19.6475 52.4662 19.5924 52.4662C19.438 52.4662 19.2175 52.4439 18.8262 52.4439C18.4348 52.4439 18.2584 52.4662 18.1592 52.4662C18.071 52.4662 18.0214 52.4579 18.0214 52.4328C18.0214 52.4188 18.071 52.3853 18.1923 52.3351C18.3962 52.2513 18.4761 51.6344 18.4761 51.2241V50.2332C18.4761 49.8703 18.2005 49.7223 17.8919 49.7223C17.3544 49.7223 16.9134 50.2834 16.6461 50.6882L15.4417 52.4662C15.3342 52.4662 15.0255 52.4439 14.8216 52.4439C14.3668 52.4439 14.2373 52.4662 14.1629 52.4662C14.1215 52.4662 14.0664 52.4523 14.0664 52.4328C14.0664 52.402 14.1877 52.3602 14.3503 52.2597C14.8629 51.9638 15.2874 51.3553 15.6126 50.8584C16.3374 49.781 16.58 49.5912 17.947 49.5325V49.5158L15.9047 47.9582C15.5547 47.6875 15.3755 47.587 14.9842 47.4055C14.7665 47.3078 14.5542 47.2408 14.5542 47.199C14.5542 47.1571 14.6424 47.1348 14.8629 47.1348C15.0751 47.1348 15.2929 47.1655 15.5051 47.1655C15.6594 47.1655 15.822 47.1348 15.9791 47.1348C16.0508 47.1348 16.1169 47.1515 16.1169 47.199C16.1169 47.2325 16.0673 47.2492 16.0177 47.2911C15.9709 47.3246 15.9295 47.3804 15.9295 47.4725C15.9295 47.6623 16.467 48.1313 17.0512 48.5779L18.4761 49.6554V48.2374C18.4761 47.6707 18.421 47.3637 18.1757 47.2408C18.1344 47.2241 18.1179 47.1906 18.1179 47.1766C18.1179 47.1571 18.1427 47.1348 18.2088 47.1348C18.2722 47.1348 18.5258 47.1655 18.8262 47.1655C19.0136 47.1655 19.2093 47.1348 19.3967 47.1348C19.4628 47.1348 19.4794 47.1571 19.4794 47.1822C19.4794 47.2157 19.4297 47.2492 19.3636 47.2827C19.201 47.3469 19.1762 47.6875 19.1762 47.9666V49.6554L20.6011 48.5779C21.1881 48.1313 21.7256 47.6623 21.7256 47.4725C21.7256 47.3804 21.6842 47.3246 21.6346 47.2911C21.585 47.2492 21.5382 47.2325 21.5382 47.199C21.5382 47.1515 21.6015 47.1348 21.676 47.1348C21.8303 47.1348 21.9929 47.1655 22.1473 47.1655C22.3595 47.1655 22.58 47.1348 22.7894 47.1348C23.0099 47.1348 23.1009 47.1571 23.1009 47.199C23.1009 47.2408 22.8886 47.3078 22.6682 47.4055C22.2768 47.587 22.0976 47.6875 21.7476 47.9582L19.7054 49.5158V49.5325C21.0724 49.5912 21.3177 49.781 22.0425 50.8584C22.3677 51.3553 22.7894 51.9638 23.3021 52.2597C23.4647 52.3602 23.5887 52.402 23.5887 52.4328C23.5887 52.4523 23.5308 52.4662 23.4895 52.4662Z" stroke="white" stroke-width="0.17639" stroke-miterlimit="10"/>
<path d="M24.6226 48.3131C24.347 47.8274 24.0052 47.4561 23.8178 47.3221C23.7131 47.2579 23.6469 47.2412 23.6387 47.1993C23.6387 47.1491 23.6635 47.1351 23.7048 47.1351C23.9253 47.1351 24.2257 47.1658 24.4517 47.1658C24.6639 47.1658 24.8844 47.1351 25.1049 47.1351C25.2014 47.1351 25.2923 47.1351 25.3006 47.1909C25.3006 47.2244 25.2344 47.2412 25.1683 47.2914C25.1049 47.3417 25.0305 47.4142 25.047 47.5873C25.0553 47.6766 25.16 47.9083 25.3971 48.3214L26.5767 50.3814L27.6433 48.5866C27.8803 48.1902 28.0098 47.7604 28.0181 47.7017C28.0346 47.4952 27.9437 47.3724 27.8224 47.3221C27.6846 47.2663 27.5937 47.2328 27.5937 47.1909C27.5937 47.1602 27.6515 47.1351 27.7011 47.1351C27.9106 47.1351 28.1228 47.1658 28.335 47.1658C28.539 47.1658 28.7429 47.1351 28.9552 47.1351C29.002 47.1351 29.0434 47.1491 29.0351 47.1853C29.0351 47.216 28.9607 47.2244 28.8229 47.3417C28.5886 47.5371 28.415 47.7855 28.2606 48.0395L26.3975 51.1323C26.3644 51.1881 26.2266 51.4701 25.838 51.8413C25.364 52.3019 24.8679 52.4498 24.2257 52.4415L24.4848 51.5706C24.5013 51.5036 24.5261 51.4701 24.5427 51.4701C24.5757 51.4701 24.584 51.4784 24.6005 51.4868C24.7135 51.7018 24.9423 51.7911 25.1683 51.7911C25.5597 51.7911 25.9262 51.4533 26.1881 51.0346L24.6226 48.3131ZM33.9602 47.6459C34.0264 47.8497 34.1146 48.1819 34.1146 48.2126C34.1146 48.2377 34.0897 48.2461 34.0677 48.2461C34.0429 48.2461 34.0098 48.2042 33.985 48.1651C33.5688 47.5538 32.6263 47.3724 31.5679 47.3724H30.5427V51.0318C30.5427 51.7408 30.6061 52.2042 30.9726 52.3689C31.014 52.3856 31.0553 52.4108 31.0553 52.4331C31.0553 52.4582 31.0305 52.4666 30.9726 52.4666C30.8844 52.4666 30.7053 52.4443 30.2009 52.4443C29.7214 52.4443 29.4347 52.4666 29.3631 52.4666C29.3217 52.4666 29.3052 52.4582 29.3052 52.4331C29.3052 52.4191 29.3465 52.4024 29.3768 52.394C29.8095 52.2461 29.8426 51.7492 29.8426 51.0402V47.7855C29.8426 47.5119 29.7682 47.3807 29.5339 47.2747C29.5009 47.2663 29.4513 47.2495 29.4513 47.2077C29.4513 47.1826 29.5009 47.1658 29.6387 47.1658H33.8141L33.9602 47.6459ZM37.0856 47.8832L36.1017 49.6641H38.0061L37.0856 47.8832ZM36.0052 49.8706L35.4843 50.8699C35.3217 51.1742 35.126 51.6013 35.126 51.9223C35.126 52.0646 35.206 52.1958 35.3272 52.2851C35.4265 52.3605 35.556 52.3773 35.556 52.4247C35.556 52.4526 35.5064 52.4582 35.4347 52.4582C35.239 52.4582 35.0516 52.4415 34.8642 52.4415C34.6685 52.4415 34.4673 52.4582 34.2717 52.4582C34.1972 52.4582 34.1228 52.4582 34.1228 52.4191C34.1228 52.3689 34.2468 52.3103 34.2937 52.26C34.6272 51.939 34.9469 51.3947 35.1343 51.0402L37.273 47.0514C37.2896 47.0179 37.3061 47.0039 37.3309 47.0039H37.3474C37.3722 47.0039 37.4053 47.0346 37.4053 47.0514L39.8059 51.7352C39.9189 51.9558 40.1146 52.1874 40.3185 52.327C40.3902 52.3773 40.4398 52.4024 40.4398 52.4191C40.4398 52.4331 40.4315 52.4582 40.3571 52.4582C40.1228 52.4582 39.8472 52.4415 39.5937 52.4415C39.3401 52.4415 38.9983 52.4582 38.7723 52.4582C38.731 52.4582 38.7062 52.4526 38.7062 52.4331C38.7062 52.3856 38.7806 52.3773 38.8605 52.3354C38.9349 52.2935 39.0066 52.2209 39.0066 52.0395C39.0066 51.8162 38.8275 51.3863 38.6152 50.9593L38.0888 49.8706H36.0052Z" fill="white" stroke="white" stroke-width="0.17639" stroke-miterlimit="10"/>
<path d="M45.4721 47.5777C45.0477 47.586 44.7803 47.8652 44.7803 48.2783C44.7803 48.7389 45.089 49.1938 45.3894 49.5149C45.8772 49.3837 46.219 48.8896 46.219 48.3871C46.219 47.9238 45.9599 47.5609 45.4721 47.5777ZM45.7146 52.4011C46.1804 52.4011 46.6269 52.1946 46.9687 51.8735C46.2438 51.2622 45.5355 50.6286 44.8933 49.9363C44.4937 50.1652 44.2098 50.4946 44.2098 50.9831C44.2098 51.7647 44.9732 52.4011 45.7146 52.4011ZM48.1731 49.7968C48.2227 50.3243 47.8478 51.1394 47.5474 51.5358C48.0683 51.9629 48.4487 52.2364 48.9558 52.3257C49.0275 52.3425 49.0605 52.3592 49.0605 52.3927C49.0605 52.443 49.0026 52.443 48.9558 52.443H47.7734C47.6439 52.443 47.2553 52.0801 47.1313 51.9964C46.66 52.376 46.0399 52.5965 45.439 52.6049C44.5681 52.616 43.5098 52.2197 43.5098 51.212C43.5098 50.4946 44.2181 50.0675 44.7803 49.7884C44.502 49.4981 44.2897 49.0794 44.2897 48.6747C44.2897 47.9154 44.9429 47.3711 45.6264 47.3711C46.3099 47.3711 46.773 47.6781 46.773 48.3118C46.773 49.0543 46.106 49.4172 45.5107 49.6628C46.0729 50.2825 46.693 50.8491 47.3517 51.3544C47.4813 51.1562 47.5474 50.9077 47.5474 50.6928C47.5474 50.2155 47.2856 49.9531 46.886 49.8777C46.8474 49.8694 46.8308 49.8526 46.8308 49.8359C46.8308 49.7968 46.8722 49.7968 46.9053 49.7968H48.1731Z" fill="white"/>
<path d="M45.4721 47.5777C45.0477 47.586 44.7803 47.8652 44.7803 48.2783C44.7803 48.7389 45.089 49.1938 45.3894 49.5149C45.8772 49.3837 46.219 48.8896 46.219 48.3871C46.219 47.9238 45.9599 47.5609 45.4721 47.5777ZM45.7146 52.4011C46.1804 52.4011 46.6269 52.1946 46.9687 51.8735C46.2438 51.2622 45.5355 50.6286 44.8933 49.9363C44.4937 50.1652 44.2098 50.4946 44.2098 50.9831C44.2098 51.7647 44.9732 52.4011 45.7146 52.4011ZM48.1731 49.7968C48.2227 50.3243 47.8478 51.1394 47.5474 51.5358C48.0683 51.9629 48.4487 52.2364 48.9558 52.3257C49.0274 52.3425 49.0605 52.3592 49.0605 52.3927C49.0605 52.443 49.0026 52.443 48.9558 52.443H47.7734C47.6439 52.443 47.2553 52.0801 47.1313 51.9964C46.66 52.376 46.0399 52.5965 45.439 52.6049C44.5681 52.616 43.5098 52.2197 43.5098 51.212C43.5098 50.4946 44.2181 50.0675 44.7803 49.7884C44.502 49.4981 44.2897 49.0794 44.2897 48.6747C44.2897 47.9154 44.9429 47.3711 45.6264 47.3711C46.3099 47.3711 46.773 47.6781 46.773 48.3118C46.773 49.0543 46.106 49.4172 45.5107 49.6628C46.0729 50.2825 46.693 50.8491 47.3517 51.3544C47.4813 51.1562 47.5474 50.9077 47.5474 50.6928C47.5474 50.2155 47.2856 49.9531 46.886 49.8777C46.8474 49.8694 46.8308 49.8526 46.8308 49.8359C46.8308 49.7968 46.8722 49.7968 46.9053 49.7968H48.1731Z" stroke="white" stroke-width="0.17639" stroke-miterlimit="10"/>
<path d="M57.103 47.1658H58.0318C58.1531 47.1658 58.1696 47.177 58.1696 47.2077C58.1614 47.2495 58.1063 47.2495 58.0484 47.283C57.8279 47.4059 57.8031 47.604 57.8031 47.9669V50.6466C57.8031 51.3054 57.894 51.8581 57.9988 52.1121C58.0952 52.3438 58.3074 52.3438 58.3074 52.4191C58.3074 52.4443 58.2606 52.4666 58.2027 52.4666C58.1063 52.4666 57.8527 52.4443 57.4779 52.4443C57.0479 52.4443 56.7199 52.4666 56.6731 52.4666C56.6235 52.4666 56.6152 52.4331 56.6152 52.4191C56.6152 52.394 56.7778 52.3689 56.8825 52.2516C57.0314 52.1037 57.103 51.8581 57.103 51.2244V47.7269H57.0893L54.8899 52.2935C54.832 52.4191 54.7686 52.5085 54.7108 52.5085C54.6391 52.5085 54.606 52.3856 54.5481 52.26L52.4315 47.7855H52.4067H52.4149V51.1239C52.4149 51.9641 52.6023 52.1372 52.8559 52.327C52.9193 52.3773 52.9524 52.4024 52.9524 52.4331C52.9524 52.4582 52.9193 52.4666 52.798 52.4666C52.7153 52.4666 52.5803 52.4443 52.2854 52.4443C51.8858 52.4443 51.7314 52.4666 51.6515 52.4666C51.5854 52.4666 51.5605 52.4526 51.5605 52.4247C51.5605 52.4024 51.6432 52.3605 51.7011 52.3186C52.0649 52.0144 52.1559 51.4868 52.1559 50.8839V48.1232C52.1559 47.5789 52.0897 47.4059 51.8306 47.2663C51.7728 47.2328 51.7232 47.216 51.7232 47.177C51.7314 47.1435 51.8306 47.1351 51.8554 47.1351C52.0318 47.1351 52.3433 47.1658 52.5555 47.1658H52.9138L55.0194 51.4115L57.103 47.1658ZM61.51 47.8832L60.5233 49.6641H62.4278L61.51 47.8832ZM60.4269 49.8706L59.906 50.8699C59.7434 51.1742 59.5477 51.6013 59.5477 51.9223C59.5477 52.0646 59.6276 52.1958 59.7516 52.2851C59.8481 52.3605 59.9776 52.3773 59.9776 52.4247C59.9776 52.4526 59.9308 52.4582 59.8564 52.4582C59.6607 52.4582 59.4733 52.4415 59.2859 52.4415C59.0902 52.4415 58.8862 52.4582 58.6933 52.4582C58.6189 52.4582 58.5472 52.4582 58.5472 52.4191C58.5472 52.3689 58.6685 52.3103 58.7181 52.26C59.0516 51.939 59.3685 51.3947 59.556 51.0402L61.6974 47.0514C61.7112 47.0179 61.7277 47.0039 61.7526 47.0039H61.7691C61.7939 47.0039 61.827 47.0346 61.827 47.0514L64.2275 51.7352C64.3405 51.9558 64.5362 52.1874 64.7402 52.327C64.8146 52.3773 64.8614 52.4024 64.8614 52.4191C64.8614 52.4331 64.8532 52.4582 64.7815 52.4582C64.5445 52.4582 64.2661 52.4415 64.0153 52.4415C63.7617 52.4415 63.4227 52.4582 63.194 52.4582C63.1526 52.4582 63.1278 52.4526 63.1278 52.4331C63.1278 52.3856 63.2023 52.3773 63.2822 52.3354C63.3566 52.2935 63.431 52.2209 63.431 52.0395C63.431 51.8162 63.2519 51.3863 63.0396 50.9593L62.5105 49.8706H60.4269Z" fill="white" stroke="white" stroke-width="0.17639" stroke-miterlimit="10"/>
<path d="M74.0528 52.4662C73.9784 52.4662 73.8488 52.4439 73.3913 52.4439C73.1901 52.4439 72.8814 52.4662 72.7739 52.4662L71.5695 50.6882C71.3022 50.2834 70.8612 49.7223 70.3238 49.7223C70.0151 49.7223 69.7395 49.8703 69.7395 50.2332V51.2241C69.7395 51.6512 69.7863 52.2122 70.0564 52.3267C70.1612 52.3686 70.2356 52.4104 70.2356 52.4328C70.2356 52.4579 70.2108 52.4662 70.1529 52.4662C69.9986 52.4662 69.7781 52.4439 69.3895 52.4439C68.9981 52.4439 68.819 52.4662 68.7197 52.4662C68.6315 52.4662 68.5819 52.4579 68.5819 52.4328C68.5819 52.4188 68.6315 52.3853 68.7528 52.3351C68.9568 52.2513 69.0394 51.6344 69.0394 51.2241V50.2332C69.0394 49.8703 68.7611 49.7223 68.4524 49.7223C67.915 49.7223 67.4767 50.2834 67.2066 50.6882L66.0022 52.4662C65.8975 52.4662 65.5888 52.4439 65.3849 52.4439C64.9274 52.4439 64.7978 52.4662 64.7234 52.4662C64.6848 52.4662 64.627 52.4523 64.627 52.4328C64.627 52.402 64.7482 52.3602 64.9108 52.2597C65.4235 51.9638 65.8479 51.3553 66.1731 50.8584C66.898 49.781 67.1405 49.5912 68.5103 49.5325V49.5158L66.4653 47.9582C66.118 47.6875 65.9361 47.587 65.5475 47.4055C65.327 47.3078 65.1148 47.2408 65.1148 47.199C65.1148 47.1571 65.2057 47.1348 65.4235 47.1348C65.6357 47.1348 65.8562 47.1655 66.0684 47.1655C66.2227 47.1655 66.3853 47.1348 66.5397 47.1348C66.6113 47.1348 66.6775 47.1515 66.6775 47.199C66.6775 47.2325 66.6279 47.2492 66.581 47.2911C66.5314 47.3246 66.4901 47.3804 66.4901 47.4725C66.4901 47.6623 67.0275 48.1313 67.6146 48.5779L69.0394 49.6554V48.2374C69.0394 47.6707 68.9816 47.3637 68.7363 47.2408C68.6949 47.2241 68.6812 47.1906 68.6812 47.1766C68.6812 47.1571 68.706 47.1348 68.7694 47.1348C68.8355 47.1348 69.0863 47.1655 69.3895 47.1655C69.5741 47.1655 69.7726 47.1348 69.9572 47.1348C70.0234 47.1348 70.0399 47.1571 70.0399 47.1822C70.0399 47.2157 69.9903 47.2492 69.9242 47.2827C69.7643 47.3469 69.7395 47.6875 69.7395 47.9666V49.6554L71.1616 48.5779C71.7487 48.1313 72.2861 47.6623 72.2861 47.4725C72.2861 47.3804 72.2448 47.3246 72.1952 47.2911C72.1483 47.2492 72.0987 47.2325 72.0987 47.199C72.0987 47.1515 72.1621 47.1348 72.2365 47.1348C72.3908 47.1348 72.5535 47.1655 72.7106 47.1655C72.92 47.1655 73.1405 47.1348 73.3527 47.1348C73.5705 47.1348 73.6614 47.1571 73.6614 47.199C73.6614 47.2408 73.4492 47.3078 73.2315 47.4055C72.8401 47.587 72.6609 47.6875 72.3109 47.9582L70.2687 49.5158V49.5325C71.6357 49.5912 71.8782 49.781 72.6031 50.8584C72.9283 51.3553 73.3527 51.9638 73.8654 52.2597C74.028 52.3602 74.1492 52.402 74.1492 52.4328C74.1492 52.4523 74.0941 52.4662 74.0528 52.4662Z" fill="white"/>
<path d="M74.0528 52.4662C73.9784 52.4662 73.8488 52.4439 73.3913 52.4439C73.1901 52.4439 72.8814 52.4662 72.7739 52.4662L71.5695 50.6882C71.3022 50.2834 70.8612 49.7223 70.3238 49.7223C70.0151 49.7223 69.7395 49.8703 69.7395 50.2332V51.2241C69.7395 51.6512 69.7863 52.2122 70.0564 52.3267C70.1612 52.3686 70.2356 52.4104 70.2356 52.4328C70.2356 52.4579 70.2108 52.4662 70.1529 52.4662C69.9986 52.4662 69.7781 52.4439 69.3895 52.4439C68.9981 52.4439 68.819 52.4662 68.7197 52.4662C68.6315 52.4662 68.5819 52.4579 68.5819 52.4328C68.5819 52.4188 68.6315 52.3853 68.7528 52.3351C68.9568 52.2513 69.0394 51.6344 69.0394 51.2241V50.2332C69.0394 49.8703 68.7611 49.7223 68.4524 49.7223C67.915 49.7223 67.4767 50.2834 67.2066 50.6882L66.0022 52.4662C65.8975 52.4662 65.5888 52.4439 65.3849 52.4439C64.9274 52.4439 64.7978 52.4662 64.7234 52.4662C64.6848 52.4662 64.627 52.4523 64.627 52.4328C64.627 52.402 64.7482 52.3602 64.9108 52.2597C65.4235 51.9638 65.8479 51.3553 66.1731 50.8584C66.898 49.781 67.1405 49.5912 68.5103 49.5325V49.5158L66.4653 47.9582C66.118 47.6875 65.9361 47.587 65.5475 47.4055C65.327 47.3078 65.1148 47.2408 65.1148 47.199C65.1148 47.1571 65.2057 47.1348 65.4235 47.1348C65.6357 47.1348 65.8562 47.1655 66.0684 47.1655C66.2227 47.1655 66.3853 47.1348 66.5397 47.1348C66.6113 47.1348 66.6775 47.1515 66.6775 47.199C66.6775 47.2325 66.6279 47.2492 66.581 47.2911C66.5314 47.3246 66.4901 47.3804 66.4901 47.4725C66.4901 47.6623 67.0275 48.1313 67.6146 48.5779L69.0394 49.6554V48.2374C69.0394 47.6707 68.9816 47.3637 68.7363 47.2408C68.6949 47.2241 68.6812 47.1906 68.6812 47.1766C68.6812 47.1571 68.706 47.1348 68.7694 47.1348C68.8355 47.1348 69.0863 47.1655 69.3895 47.1655C69.5741 47.1655 69.7726 47.1348 69.9572 47.1348C70.0234 47.1348 70.0399 47.1571 70.0399 47.1822C70.0399 47.2157 69.9903 47.2492 69.9242 47.2827C69.7643 47.3469 69.7395 47.6875 69.7395 47.9666V49.6554L71.1616 48.5779C71.7487 48.1313 72.2861 47.6623 72.2861 47.4725C72.2861 47.3804 72.2448 47.3246 72.1952 47.2911C72.1483 47.2492 72.0987 47.2325 72.0987 47.199C72.0987 47.1515 72.1621 47.1348 72.2365 47.1348C72.3908 47.1348 72.5535 47.1655 72.7106 47.1655C72.92 47.1655 73.1405 47.1348 73.3527 47.1348C73.5705 47.1348 73.6614 47.1571 73.6614 47.199C73.6614 47.2408 73.4492 47.3078 73.2315 47.4055C72.8401 47.587 72.6609 47.6875 72.3109 47.9582L70.2687 49.5158V49.5325C71.6357 49.5912 71.8782 49.781 72.6031 50.8584C72.9283 51.3553 73.3527 51.9638 73.8654 52.2597C74.028 52.3602 74.1492 52.402 74.1492 52.4328C74.1492 52.4523 74.0941 52.4662 74.0528 52.4662Z" stroke="white" stroke-width="0.17639" stroke-miterlimit="10"/>
<path d="M75.1859 48.3131C74.9075 47.8274 74.5658 47.4561 74.3784 47.3221C74.2736 47.2579 74.2075 47.2412 74.1992 47.1993C74.1992 47.1491 74.224 47.1351 74.2654 47.1351C74.4859 47.1351 74.7863 47.1658 75.015 47.1658C75.2272 47.1658 75.445 47.1351 75.6655 47.1351C75.7619 47.1351 75.8529 47.1351 75.8611 47.1909C75.8611 47.2244 75.795 47.2412 75.7316 47.2914C75.6655 47.3417 75.591 47.4142 75.6103 47.5873C75.6158 47.6766 75.7233 47.9083 75.9604 48.3214L77.14 50.3814L78.2038 48.5866C78.4408 48.1902 78.5704 47.7604 78.5786 47.7017C78.5952 47.4952 78.507 47.3724 78.383 47.3221C78.2452 47.2663 78.157 47.2328 78.157 47.1909C78.157 47.1602 78.2148 47.1351 78.2617 47.1351C78.4739 47.1351 78.6861 47.1658 78.8983 47.1658C79.0995 47.1658 79.3035 47.1351 79.5157 47.1351C79.5626 47.1351 79.6067 47.1491 79.5984 47.1853C79.5984 47.216 79.524 47.2244 79.3862 47.3417C79.1491 47.5371 78.9783 47.7855 78.8239 48.0395L76.9608 51.1323C76.9277 51.1881 76.7872 51.4701 76.3986 51.8413C75.9273 52.3019 75.4312 52.4498 74.7863 52.4415L75.0481 51.5706C75.0619 51.5036 75.0867 51.4701 75.1032 51.4701C75.1363 51.4701 75.1446 51.4784 75.1611 51.4868C75.2741 51.7018 75.5028 51.7911 75.7316 51.7911C76.1202 51.7911 76.4868 51.4533 76.7486 51.0346L75.1859 48.3131ZM84.5208 47.6459C84.5869 47.8497 84.6779 48.1819 84.6779 48.2126C84.6779 48.2377 84.6531 48.2461 84.6282 48.2461C84.6034 48.2461 84.5704 48.2042 84.5456 48.1651C84.1294 47.5538 83.1868 47.3724 82.1285 47.3724H81.1032V51.0318C81.1032 51.7408 81.1666 52.2042 81.5359 52.3689C81.5745 52.3856 81.6158 52.4108 81.6158 52.4331C81.6158 52.4582 81.591 52.4666 81.5359 52.4666C81.445 52.4666 81.2658 52.4443 80.7615 52.4443C80.2819 52.4443 79.998 52.4666 79.9236 52.4666C79.8823 52.4666 79.8657 52.4582 79.8657 52.4331C79.8657 52.4191 79.9071 52.4024 79.9401 52.394C80.3701 52.2461 80.4032 51.7492 80.4032 51.0402V47.7855C80.4032 47.5119 80.3315 47.3807 80.0945 47.2747C80.0614 47.2663 80.0118 47.2495 80.0118 47.2077C80.0118 47.1826 80.0614 47.1658 80.1992 47.1658H84.3747L84.5208 47.6459ZM87.6489 47.8832L86.6622 49.6641H88.5667L87.6489 47.8832ZM86.5658 49.8706L86.0449 50.8699C85.8823 51.1742 85.6866 51.6013 85.6866 51.9223C85.6866 52.0646 85.7665 52.1958 85.8905 52.2851C85.987 52.3605 86.1165 52.3773 86.1165 52.4247C86.1165 52.4526 86.0697 52.4582 85.9953 52.4582C85.7996 52.4582 85.6122 52.4415 85.4248 52.4415C85.2291 52.4415 85.0251 52.4582 84.8322 52.4582C84.7578 52.4582 84.6861 52.4582 84.6861 52.4191C84.6861 52.3689 84.8074 52.3103 84.857 52.26C85.1905 51.939 85.5074 51.3947 85.6949 51.0402L87.8363 47.0514C87.8501 47.0179 87.8666 47.0039 87.8915 47.0039H87.908C87.9328 47.0039 87.9659 47.0346 87.9659 47.0514L90.3664 51.7352C90.4794 51.9558 90.6751 52.1874 90.8791 52.327C90.9535 52.3773 91.0003 52.4024 91.0003 52.4191C91.0003 52.4331 90.9921 52.4582 90.9204 52.4582C90.6834 52.4582 90.405 52.4415 90.1542 52.4415C89.9006 52.4415 89.5616 52.4582 89.3329 52.4582C89.2915 52.4582 89.2667 52.4526 89.2667 52.4331C89.2667 52.3856 89.3412 52.3773 89.4211 52.3354C89.4955 52.2935 89.5699 52.2209 89.5699 52.0395C89.5699 51.8162 89.3908 51.3863 89.1785 50.9593L88.6494 49.8706H86.5658Z" fill="white" stroke="white" stroke-width="0.17639" stroke-miterlimit="10"/>
<path d="M15.8405 58.6498C15.959 58.58 16.0527 58.4823 16.1216 58.3512C16.1905 58.2228 16.2264 58.072 16.2264 57.9017C16.2264 57.7343 16.1905 57.5863 16.1216 57.4551C16.0527 57.3267 15.959 57.2262 15.8405 57.1565C15.7193 57.0867 15.587 57.0504 15.4409 57.0504C15.2921 57.0504 15.1598 57.0867 15.0385 57.1565C14.9172 57.2262 14.8235 57.3267 14.7574 57.4551C14.6885 57.5863 14.6554 57.7343 14.6554 57.9017C14.6554 58.072 14.6885 58.2228 14.7574 58.3512C14.8235 58.4823 14.9172 58.58 15.0385 58.6498C15.1598 58.7224 15.2921 58.7559 15.4409 58.7559C15.587 58.7559 15.7193 58.7224 15.8405 58.6498ZM16.0638 56.8243C16.2457 56.9304 16.3917 57.0755 16.4965 57.2653C16.6012 57.4495 16.6536 57.6645 16.6536 57.9017C16.6536 58.139 16.6012 58.3512 16.4965 58.5382C16.3917 58.7252 16.2457 58.8731 16.0638 58.9792C15.8791 59.0853 15.6724 59.1411 15.4409 59.1411C15.2287 59.1411 15.0385 59.0964 14.8676 59.0071C14.6968 58.9178 14.5562 58.795 14.4459 58.6359C14.3357 58.474 14.2668 58.2925 14.2392 58.0888H13.7569V59.1132H13.3242V56.6903H13.7569V57.6812H14.2448C14.2751 57.4803 14.344 57.3044 14.4542 57.1481C14.5645 56.9973 14.705 56.8773 14.8731 56.7936C15.044 56.7098 15.2342 56.668 15.4409 56.668C15.6724 56.668 15.8791 56.721 16.0638 56.8243ZM19.3738 58.647C19.4951 58.5773 19.5916 58.4768 19.6605 58.3456C19.7321 58.2172 19.7679 58.0692 19.7679 57.9017C19.7679 57.7343 19.7321 57.5863 19.6605 57.4551C19.5916 57.3267 19.4951 57.2262 19.3738 57.1565C19.2498 57.0867 19.1148 57.0504 18.9604 57.0504C18.8088 57.0504 18.6738 57.0867 18.5525 57.1592C18.4285 57.2318 18.332 57.3295 18.2631 57.4579C18.1915 57.5863 18.1556 57.7343 18.1556 57.9017C18.1556 58.0692 18.1915 58.2172 18.2604 58.3456C18.3293 58.4768 18.4257 58.5773 18.5498 58.647C18.6738 58.7196 18.8088 58.7559 18.9604 58.7559C19.1148 58.7559 19.2498 58.7196 19.3738 58.647ZM19.6191 56.8215C19.801 56.9276 19.9471 57.0699 20.0491 57.2569C20.1538 57.444 20.2062 57.6561 20.2062 57.9017C20.2062 58.1446 20.1538 58.3623 20.0491 58.5465C19.9471 58.7364 19.801 58.8815 19.6191 58.9848C19.4345 59.0881 19.2278 59.1383 18.9962 59.1383C18.8254 59.1383 18.6683 59.1076 18.525 59.0406C18.3816 58.9708 18.2604 58.8731 18.1611 58.7475V60.0008H17.7284V56.6903H18.1446V57.0755C18.2411 56.9387 18.3623 56.8382 18.5084 56.7712C18.6572 56.7015 18.8199 56.668 18.9962 56.668C19.2278 56.668 19.4345 56.7182 19.6191 56.8215ZM21.2838 56.6903H21.7165V58.4544L23.1855 56.6903H23.5769V59.1132H23.1442V57.3491L21.6807 59.1132H21.2838V56.6903ZM25.3656 58.2953C25.327 58.4963 25.2608 58.6387 25.1616 58.728H26.5011V57.0727H25.462L25.44 57.5389C25.4289 57.8459 25.4041 58.0971 25.3656 58.2953ZM27.3003 58.728V59.6743H26.8924V59.1132H24.8943V59.6743H24.4836V58.728H24.6104C24.7647 58.7196 24.8695 58.6108 24.9246 58.3986C24.9825 58.1893 25.021 57.8934 25.0431 57.5082L25.0789 56.6903H26.9338V58.728H27.3003ZM28.3146 56.6903H28.7473V58.4544L30.2135 56.6903H30.6076V59.1132H30.1722V57.3491L28.7114 59.1132H28.3146V56.6903ZM33.8075 56.6903V59.1132H33.372V58.1334C33.1129 58.2562 32.8566 58.3177 32.6003 58.3177C32.3026 58.3177 32.0739 58.2479 31.9113 58.1055C31.7487 57.9659 31.666 57.7566 31.666 57.4775V56.6903H32.1014V57.4495C32.1014 57.617 32.151 57.7426 32.2558 57.8292C32.3605 57.9129 32.5038 57.9548 32.6912 57.9548C32.9035 57.9548 33.1295 57.9017 33.372 57.7957V56.6903H33.8075ZM35.5548 57.229C35.4142 57.3574 35.3343 57.5249 35.3095 57.7315H36.8419C36.8199 57.5277 36.7372 57.363 36.5966 57.2318C36.456 57.1006 36.2824 57.0364 36.0757 57.0364C35.869 57.0364 35.6954 57.1006 35.5548 57.229ZM37.2498 58.0469H35.3095C35.3343 58.2618 35.428 58.4321 35.5851 58.5605C35.745 58.6917 35.9407 58.7559 36.1749 58.7559C36.4616 58.7559 36.6903 58.6582 36.8667 58.4628L37.1037 58.7475C36.9962 58.8759 36.8612 58.9708 36.7013 59.0378C36.5387 59.1048 36.3596 59.1411 36.1611 59.1411C35.9103 59.1411 35.6843 59.0881 35.4887 58.982C35.293 58.8787 35.1414 58.7308 35.0367 58.541C34.9292 58.3512 34.8741 58.139 34.8741 57.9017C34.8741 57.6673 34.9264 57.4551 35.0312 57.2653C35.1359 57.0755 35.2764 56.9304 35.4611 56.8243C35.643 56.7182 35.847 56.668 36.0757 56.668C36.3045 56.668 36.5084 56.7182 36.6876 56.8243C36.8667 56.9304 37.0073 57.0755 37.1065 57.2653C37.2085 57.4551 37.2581 57.6701 37.2581 57.9157C37.2581 57.9492 37.2553 57.9911 37.2498 58.0469ZM38.7712 58.9792C38.581 58.8731 38.4322 58.728 38.3247 58.5382C38.2144 58.3512 38.1593 58.139 38.1593 57.9017C38.1593 57.6645 38.2144 57.4495 38.3247 57.2653C38.4322 57.0755 38.581 56.9304 38.7712 56.8243C38.9641 56.7182 39.1818 56.668 39.4244 56.668C39.6393 56.668 39.835 56.7126 40.0031 56.7992C40.174 56.8885 40.3063 57.0169 40.4 57.1844L40.0693 57.3993C39.9949 57.2821 39.9012 57.1955 39.7909 57.1397C39.6779 57.0811 39.5566 57.0504 39.4188 57.0504C39.2645 57.0504 39.1239 57.0867 38.9972 57.1565C38.8731 57.2262 38.7739 57.3267 38.705 57.4551C38.6334 57.5863 38.5975 57.7343 38.5975 57.9017C38.5975 58.072 38.6334 58.2228 38.705 58.3512C38.7739 58.4823 38.8731 58.58 38.9972 58.6498C39.1239 58.7224 39.2645 58.7559 39.4188 58.7559C39.5566 58.7559 39.6779 58.728 39.7909 58.6694C39.9012 58.6108 39.9949 58.5242 40.0693 58.407L40.4 58.6191C40.3063 58.7866 40.174 58.915 40.0031 59.0043C39.835 59.0937 39.6393 59.1411 39.4244 59.1411C39.1818 59.1411 38.9641 59.0853 38.7712 58.9792ZM42.3403 58.0888H41.8442V59.1132H41.4087V56.6903H41.8442V57.7147H42.3486L43.1258 56.6903H43.5888L42.682 57.8571L43.6522 59.1132H43.1423L42.3403 58.0888ZM45.6972 58.6889C45.8185 58.6163 45.9039 58.5103 45.959 58.3735V58.0329H45.2921C44.9227 58.0329 44.7408 58.1586 44.7408 58.407C44.7408 58.5298 44.7877 58.6275 44.8814 58.6973C44.9724 58.7671 45.1019 58.8006 45.2673 58.8006C45.4326 58.8006 45.5759 58.7643 45.6972 58.6889ZM46.1272 56.9136C46.3035 57.0783 46.3917 57.3239 46.3917 57.6505V59.1132H45.9811V58.7922C45.9094 58.9066 45.8047 58.9904 45.6724 59.0518C45.5374 59.1104 45.3803 59.1411 45.1956 59.1411C44.9283 59.1411 44.7133 59.0741 44.5534 58.9429C44.3908 58.8117 44.3109 58.6415 44.3109 58.4265C44.3109 58.2144 44.3881 58.0413 44.5424 57.9129C44.694 57.7817 44.9393 57.7175 45.2728 57.7175H45.959V57.631C45.959 57.444 45.9039 57.2988 45.7964 57.1983C45.6889 57.0978 45.5291 57.0476 45.3169 57.0476C45.1763 57.0476 45.0385 57.0699 44.9035 57.1174C44.7684 57.1648 44.6527 57.229 44.5589 57.3072L44.3798 56.9778C44.5038 56.8773 44.6499 56.7992 44.8208 56.7461C44.9944 56.6931 45.1763 56.668 45.3665 56.668C45.6972 56.668 45.9508 56.7489 46.1272 56.9136ZM48.0371 57.9129C48.1391 57.9911 48.2879 58.0301 48.4919 58.0301H49.1533V57.0727H48.5084C48.0922 57.0727 47.8855 57.2346 47.8855 57.5528C47.8855 57.7147 47.9352 57.8348 48.0371 57.9129ZM49.5419 56.6903V59.1132H49.1533V58.3456H48.4092L47.8855 59.1132H47.4198L48.0013 58.2842C47.8222 58.2311 47.6843 58.139 47.5879 58.0134C47.4914 57.8878 47.4418 57.7287 47.4418 57.5417C47.4418 57.2625 47.5355 57.0532 47.7229 56.908C47.9103 56.7629 48.1667 56.6903 48.4946 56.6903H49.5419ZM53.4308 58.0888H52.9347V59.1132H52.502V56.6903H52.9347V57.7147H53.4418L54.2163 56.6903H54.682L53.7753 57.8571L54.7454 59.1132H54.2356L53.4308 58.0888ZM57.0082 58.647C57.1295 58.5773 57.2259 58.4768 57.2948 58.3456C57.3637 58.2172 57.3995 58.0692 57.3995 57.9017C57.3995 57.7343 57.3637 57.5863 57.2948 57.4551C57.2259 57.3267 57.1295 57.2262 57.0082 57.1565C56.8842 57.0867 56.7491 57.0504 56.5948 57.0504C56.4404 57.0504 56.3026 57.0867 56.1814 57.1565C56.0601 57.2262 55.9636 57.3267 55.892 57.4551C55.8231 57.5863 55.7872 57.7343 55.7872 57.9017C55.7872 58.0692 55.8231 58.2172 55.892 58.3456C55.9636 58.4768 56.0601 58.5773 56.1814 58.647C56.3026 58.7196 56.4404 58.7559 56.5948 58.7559C56.7491 58.7559 56.8842 58.7196 57.0082 58.647ZM55.9554 58.9792C55.7652 58.8731 55.6164 58.7252 55.5089 58.5382C55.4041 58.3512 55.349 58.139 55.349 57.9017C55.349 57.6645 55.4041 57.4495 55.5089 57.2653C55.6164 57.0755 55.7652 56.9304 55.9554 56.8243C56.1428 56.721 56.3577 56.668 56.5948 56.668C56.8318 56.668 57.0468 56.721 57.2314 56.8243C57.4216 56.9304 57.5677 57.0755 57.6752 57.2653C57.7826 57.4495 57.835 57.6645 57.835 57.9017C57.835 58.139 57.7826 58.3512 57.6752 58.5382C57.5677 58.7252 57.4216 58.8731 57.2314 58.9792C57.0468 59.0853 56.8318 59.1383 56.5948 59.1383C56.3577 59.1383 56.1428 59.0853 55.9554 58.9792ZM61.6715 56.6903V59.1132H61.2774V57.3435L60.3844 58.8396H60.1942L59.3095 57.3379V59.1132H58.9154V56.6903H59.3619L60.299 58.326L61.2663 56.6903H61.6715ZM65.1827 56.6903V59.1132H64.75V57.0727H63.3995V59.1132H62.9668V56.6903H65.1827ZM67.6549 58.6889C67.7762 58.6163 67.8617 58.5103 67.9168 58.3735V58.0329H67.2498C66.8805 58.0329 66.6986 58.1586 66.6986 58.407C66.6986 58.5298 66.7454 58.6275 66.8391 58.6973C66.9328 58.7671 67.0596 58.8006 67.2278 58.8006C67.3931 58.8006 67.5337 58.7643 67.6549 58.6889ZM68.0849 56.9136C68.2613 57.0783 68.3495 57.3239 68.3495 57.6505V59.1132H67.9388V58.7922C67.8672 58.9066 67.7624 58.9904 67.6301 59.0518C67.4951 59.1104 67.338 59.1411 67.1533 59.1411C66.886 59.1411 66.671 59.0741 66.5112 58.9429C66.3486 58.8117 66.2686 58.6415 66.2686 58.4265C66.2686 58.2144 66.3458 58.0413 66.5001 57.9129C66.6517 57.7817 66.897 57.7175 67.2305 57.7175H67.9168V57.631C67.9168 57.444 67.8617 57.2988 67.7542 57.1983C67.6467 57.0978 67.4868 57.0476 67.2774 57.0476C67.134 57.0476 66.9962 57.0699 66.8612 57.1174C66.7261 57.1648 66.6104 57.229 66.5194 57.3072L66.3375 56.9778C66.4616 56.8773 66.6076 56.7992 66.7785 56.7461C66.9521 56.6931 67.134 56.668 67.3242 56.668C67.6577 56.668 67.9085 56.7489 68.0849 56.9136ZM69.5815 56.6903H70.0142V57.7175H71.3784V56.6903H71.8111V59.1132H71.3784V58.0971H70.0142V59.1132H69.5815V56.6903ZM73.1065 56.6903H73.5392V58.4544L75.0054 56.6903H75.3995V59.1132H74.9641V57.3491L73.5034 59.1132H73.1065V56.6903ZM77.1001 57.9129C77.202 57.9911 77.3536 58.0301 77.5548 58.0301H78.219V57.0727H77.5741C77.1579 57.0727 76.9485 57.2346 76.9485 57.5528C76.9485 57.7147 77.0008 57.8348 77.1001 57.9129ZM78.6049 56.6903V59.1132H78.219V58.3456H77.4721L76.9485 59.1132H76.4854L77.067 58.2842C76.8851 58.2311 76.7473 58.139 76.6508 58.0134C76.5571 57.8878 76.5075 57.7287 76.5075 57.5417C76.5075 57.2625 76.6012 57.0532 76.7886 56.908C76.9733 56.7629 77.2323 56.6903 77.5576 56.6903H78.6049Z" fill="white"/>
<mask id="mask0_39_410" style="mask-type:luminance" maskUnits="userSpaceOnUse" x="16" y="0" width="60" height="38">
<path d="M16.2891 0H75.5559V37.1585H16.2891V0Z" fill="white"/>
</mask>
<g mask="url(#mask0_39_410)">
<mask id="mask1_39_410" style="mask-type:luminance" maskUnits="userSpaceOnUse" x="16" y="0" width="60" height="38">
<path d="M65.736 0.693483C64.482 0.693483 62.6685 0.592994 60.2955 0.400391C59.3447 2.90144 58.5179 4.87493 57.8261 6.31806L55.7452 10.6195L55.1665 11.8114L54.1577 13.9077L53.5734 15.122L46.5096 29.7152C44.7677 26.2986 43.0314 22.7898 41.3254 19.1862C40.584 17.6314 39.906 16.1939 39.2776 14.8847C39.0819 14.4632 38.889 14.0557 38.6988 13.6621C38.3323 12.8833 37.9878 12.1576 37.6708 11.4765C37.4724 11.055 37.2822 10.6558 37.0976 10.2762C35.6368 7.20571 34.7494 5.30201 34.4186 4.57346C33.9722 3.61603 33.3934 2.22873 32.6685 0.400391C30.6483 0.592994 28.7659 0.693483 27.0158 0.693483C25.4779 0.693483 23.2344 0.592994 20.2772 0.400391V1.93843C20.9331 2.09474 21.4264 2.20081 21.7654 2.25106C24.1026 2.60277 25.6047 2.90144 26.2744 3.16662C26.6272 3.30061 26.8807 3.5295 27.0434 3.85329C27.206 4.1743 27.2831 4.96704 27.2831 6.2399L27.3134 9.41088C27.3134 10.7563 27.3052 12.099 27.2969 13.4639C28.223 13.45 29.1187 13.3355 30.0061 13.1345C30.0999 13.1122 30.1908 13.0927 30.2818 13.0648L30.1991 6.96844C31.0645 8.70467 31.9189 10.413 32.7457 12.0766C32.9579 12.4925 33.1619 12.9057 33.3658 13.3216C33.6469 13.8938 33.9308 14.4632 34.2119 15.0271C34.4104 15.429 34.6088 15.8282 34.799 16.2218C38.5803 23.8952 41.8959 30.8485 44.7457 37.0648H46.256C46.9974 35.3286 48.1467 32.822 49.6984 29.5421C52.2946 24.0683 54.4609 19.5239 56.2055 15.9064C56.4012 15.4932 56.5914 15.0913 56.7843 14.7061C57.093 14.0641 57.3906 13.4555 57.6662 12.8777C57.8619 12.4618 58.0603 12.071 58.245 11.6914C59.2592 9.60348 60.042 8.03195 60.5932 6.96844V12.7493C60.7282 12.7996 60.855 12.8414 60.9873 12.8833C62.2165 13.2713 63.5064 13.4695 64.8045 13.4695C64.8982 12.8275 65.1793 12.2692 65.5872 11.8421L65.6589 6.25944V5.92448C65.6589 4.51764 65.8849 3.64394 66.3507 3.29502C66.6318 3.06613 68.0015 2.71721 70.4572 2.22873C70.7246 2.1729 71.1214 2.08078 71.6506 1.93843V0.400391C68.8752 0.592994 66.9019 0.693483 65.736 0.693483ZM44.7457 8.89169C44.0539 9.14012 43.4558 9.61185 43.0452 10.2204H43.0397C42.4747 10.2622 41.0498 10.4213 38.9276 11.0634L40.0135 13.3634C40.019 13.3551 40.0273 13.3551 40.0328 13.3551L42.8275 10.5832C42.5601 11.0829 42.4113 11.6635 42.4113 12.2692C42.4113 12.4479 42.4251 12.6349 42.4526 12.808C42.7062 14.5358 44.1807 15.8645 45.9666 15.8645C47.7526 15.8645 49.2271 14.5358 49.4807 12.808C49.5082 12.6349 49.522 12.4479 49.522 12.2692C49.522 11.6635 49.3759 11.0913 49.1141 10.5916L51.9005 13.3551C52.2037 13.4193 52.5234 13.4918 52.8679 13.57L52.9864 13.3271L53.9317 11.362C51.2997 10.4632 49.5358 10.2622 48.8881 10.2204C48.4774 9.61185 47.8794 9.14012 47.1876 8.89169C46.8072 8.74654 46.3966 8.66838 45.9666 8.66838C45.5367 8.66838 45.126 8.74654 44.7457 8.89169ZM66.8881 12.4925C66.4003 12.7549 66.075 13.2713 66.075 13.9412C66.075 14.2846 66.1605 14.4437 66.3093 14.72C66.075 14.7424 65.8215 14.7647 65.5541 14.7703C64.234 14.8429 62.4976 14.7424 60.5932 14.1422C60.1632 14.0054 59.7333 13.8435 59.2868 13.6509L58.8431 13.45C58.8431 13.4555 58.8376 13.4555 58.8376 13.4639C58.6805 13.7849 58.223 14.7368 58.0328 15.122C58.4627 15.2588 58.8789 15.3732 59.2868 15.4653C59.7333 15.5798 60.1688 15.6635 60.5932 15.7417C62.5473 16.0934 64.2615 16.1297 65.5541 16.0571C66.053 16.0292 66.4912 15.9845 66.8578 15.9426V16.6209L66.6125 17.302L65.5597 20.2022C65.5541 19.3034 65.5541 18.3655 65.5541 17.3802C65.2069 17.3997 64.8348 17.4081 64.4379 17.4081C63.1619 17.4081 61.8693 17.302 60.5932 17.0787V29.6984C60.5932 31.5351 60.5436 32.7996 60.4389 33.4919C60.4168 33.5365 60.403 33.5868 60.4168 33.637C60.4168 33.6705 60.4306 33.7152 60.4609 33.7431C62.0126 35.7947 64.6998 37.1458 67.7618 37.1458C69.1591 37.1458 70.4793 36.8666 71.6506 36.3586C72.1081 36.1604 72.5463 35.9287 72.9542 35.6663C73.7866 35.1444 74.5004 34.4856 75.0654 33.7431C75.1839 33.5868 75.0709 33.3635 74.8807 33.3635H74.7485L68.7705 16.9001L68.3185 15.6635C68.9607 15.4067 69.4209 14.7368 69.4209 13.9412C69.4209 12.928 68.6713 12.2692 67.748 12.2692C67.4366 12.2692 67.1417 12.3502 66.8881 12.4925ZM66.866 13.9999V13.9859C67.6129 13.7068 67.7618 13.0201 67.7618 13.0201C67.7618 13.0201 67.9106 13.7151 68.6713 13.9915C67.9106 14.2706 67.7618 14.9629 67.7618 14.9629C67.7618 14.9629 67.6129 14.279 66.866 13.9999ZM68.0098 17.1011V16.2497L68.2992 17.0452L74.2165 33.3635H68.0098V17.1011ZM65.5597 21.637L66.8578 18.0501L67.1554 17.2378V17.2295L67.5137 16.2497V33.3635H61.307L65.5597 21.637ZM22.5151 13.9412C22.5151 14.7368 22.9726 15.4067 23.6148 15.6635L17.1876 33.3635H17.0525C16.8569 33.3635 16.7494 33.5868 16.8624 33.7431C17.9152 35.122 19.4724 36.1883 21.3135 36.7382C22.2119 37.0006 23.1711 37.1458 24.1715 37.1458C26.889 37.1458 29.3171 36.0795 30.9101 34.4019C31.1168 34.1925 31.307 33.972 31.4751 33.7431C31.5937 33.5868 31.4807 33.3635 31.285 33.3635H31.1499L30.5519 31.7082C30.5436 31.5575 30.5436 31.4012 30.5436 31.2365L30.3451 17.2295C29.4356 17.3439 28.5123 17.3997 27.6001 17.3997H27.2694C27.2556 19.0885 27.2335 20.7884 27.2142 22.5107L24.8137 15.9064C25.1306 15.951 25.5192 16.0013 25.9795 16.0292C26.3654 16.0571 26.8036 16.0794 27.2831 16.0794C28.1651 16.0934 29.1959 16.0515 30.3259 15.9008C30.7475 15.8422 31.1775 15.778 31.6295 15.6858C32.0539 15.6077 32.4839 15.5156 32.9276 15.4011C32.7457 15.0215 32.4425 14.399 32.1669 13.8435L31.6102 14.0417C31.1637 14.198 30.7282 14.3209 30.3038 14.4214C29.2041 14.6782 28.1789 14.7786 27.2914 14.7842C26.8174 14.801 26.3819 14.7842 25.985 14.7563C25.8582 14.7424 25.7315 14.7368 25.6185 14.72C25.7728 14.4437 25.8582 14.2846 25.8582 13.9412C25.8582 12.928 25.1113 12.2692 24.1853 12.2692C23.262 12.2692 22.5151 12.928 22.5151 13.9412ZM23.262 13.9915C24.0254 13.7151 24.1715 13.0201 24.1715 13.0201C24.1715 13.0201 24.3203 13.7151 25.0838 13.9915C24.3203 14.2706 24.1715 14.9629 24.1715 14.9629C24.1715 14.9629 24.0254 14.2706 23.262 13.9915ZM24.4196 16.2497L27.1922 23.8952L30.629 33.3635H24.4196V16.2497ZM23.9262 16.2497V33.3635H17.7085L23.9262 16.2497Z" fill="white"/>
</mask>
<g mask="url(#mask1_39_410)">
<path d="M16.75 0.400391V37.1458H75.1845V0.400391H16.75Z" fill="url(#paint0_linear_39_410)"/>
</g>
</g>
<defs>
<linearGradient id="paint0_linear_39_410" x1="16.7505" y1="18.773" x2="75.1848" y2="18.773" gradientUnits="userSpaceOnUse">
<stop stop-color="white"/>
<stop offset="0.00390625" stop-color="#FDFCFC"/>
<stop offset="0.0078125" stop-color="#FAFAFA"/>
<stop offset="0.0117188" stop-color="#F7F7F7"/>
<stop offset="0.015625" stop-color="#F4F4F3"/>
<stop offset="0.0195312" stop-color="#F2F1F0"/>
<stop offset="0.0234375" stop-color="#EFEEED"/>
<stop offset="0.0273438" stop-color="#ECEBEB"/>
<stop offset="0.03125" stop-color="#E9E8E8"/>
<stop offset="0.0351562" stop-color="#E7E5E5"/>
<stop offset="0.0390625" stop-color="#E4E3E2"/>
<stop offset="0.0429687" stop-color="#E1E0DF"/>
<stop offset="0.046875" stop-color="#DFDDDC"/>
<stop offset="0.0507813" stop-color="#DCDADA"/>
<stop offset="0.0546875" stop-color="#D9D8D7"/>
<stop offset="0.0585938" stop-color="#D7D5D4"/>
<stop offset="0.0625" stop-color="#D4D2D1"/>
<stop offset="0.0664062" stop-color="#D2D0CF"/>
<stop offset="0.0703125" stop-color="#CFCDCC"/>
<stop offset="0.0742188" stop-color="#CCCBCA"/>
<stop offset="0.078125" stop-color="#CAC8C7"/>
<stop offset="0.0820312" stop-color="#C7C6C5"/>
<stop offset="0.0859375" stop-color="#C5C3C2"/>
<stop offset="0.0898437" stop-color="#C2C1C0"/>
<stop offset="0.09375" stop-color="#C0BEBD"/>
<stop offset="0.0976563" stop-color="#BEBCBB"/>
<stop offset="0.101563" stop-color="#BBBAB9"/>
<stop offset="0.105469" stop-color="#B9B7B6"/>
<stop offset="0.109375" stop-color="#B6B5B4"/>
<stop offset="0.113281" stop-color="#B4B3B2"/>
<stop offset="0.117188" stop-color="#B2B0B0"/>
<stop offset="0.121094" stop-color="#AFAEAD"/>
<stop offset="0.125" stop-color="#ADACAB"/>
<stop offset="0.128906" stop-color="#ABAAA9"/>
<stop offset="0.132812" stop-color="#A8A7A7"/>
<stop offset="0.136719" stop-color="#A6A5A5"/>
<stop offset="0.140625" stop-color="#A4A3A3"/>
<stop offset="0.144531" stop-color="#A2A1A1"/>
<stop offset="0.148438" stop-color="#9F9F9F"/>
<stop offset="0.152344" stop-color="#9D9D9D"/>
<stop offset="0.15625" stop-color="#9B9B9B"/>
<stop offset="0.160156" stop-color="#999999"/>
<stop offset="0.164062" stop-color="#979797"/>
<stop offset="0.167969" stop-color="#959595"/>
<stop offset="0.171875" stop-color="#929393"/>
<stop offset="0.175781" stop-color="#909191"/>
<stop offset="0.179687" stop-color="#8E8F8F"/>
<stop offset="0.183594" stop-color="#8C8D8E"/>
<stop offset="0.1875" stop-color="#8A8B8C"/>
<stop offset="0.191406" stop-color="#888A8A"/>
<stop offset="0.195313" stop-color="#868888"/>
<stop offset="0.199219" stop-color="#848687"/>
<stop offset="0.203125" stop-color="#828485"/>
<stop offset="0.207031" stop-color="#808283"/>
<stop offset="0.210938" stop-color="#7E8182"/>
<stop offset="0.214844" stop-color="#7C7F80"/>
<stop offset="0.21875" stop-color="#7A7D7E"/>
<stop offset="0.222656" stop-color="#787C7D"/>
<stop offset="0.226562" stop-color="#767A7B"/>
<stop offset="0.234375" stop-color="#777A7C"/>
<stop offset="0.238281" stop-color="#787C7D"/>
<stop offset="0.242188" stop-color="#797D7E"/>
<stop offset="0.246094" stop-color="#7B7E7F"/>
<stop offset="0.25" stop-color="#7C7F80"/>
<stop offset="0.253906" stop-color="#7D8081"/>
<stop offset="0.257812" stop-color="#7E8182"/>
<stop offset="0.261719" stop-color="#7F8283"/>
<stop offset="0.265625" stop-color="#808484"/>
<stop offset="0.269531" stop-color="#828585"/>
<stop offset="0.273438" stop-color="#838687"/>
<stop offset="0.277344" stop-color="#848788"/>
<stop offset="0.28125" stop-color="#858889"/>
<stop offset="0.285156" stop-color="#86898A"/>
<stop offset="0.289062" stop-color="#888A8B"/>
<stop offset="0.292969" stop-color="#898C8C"/>
<stop offset="0.296875" stop-color="#8A8D8D"/>
<stop offset="0.300781" stop-color="#8B8E8E"/>
<stop offset="0.304688" stop-color="#8D8F90"/>
<stop offset="0.308594" stop-color="#8E9091"/>
<stop offset="0.3125" stop-color="#8F9292"/>
<stop offset="0.316406" stop-color="#909393"/>
<stop offset="0.320312" stop-color="#929494"/>
<stop offset="0.324219" stop-color="#939595"/>
<stop offset="0.328125" stop-color="#949797"/>
<stop offset="0.332031" stop-color="#959898"/>
<stop offset="0.335937" stop-color="#979999"/>
<stop offset="0.339844" stop-color="#989A9A"/>
<stop offset="0.34375" stop-color="#999C9B"/>
<stop offset="0.347656" stop-color="#9B9D9D"/>
<stop offset="0.351562" stop-color="#9C9E9E"/>
<stop offset="0.355469" stop-color="#9DA09F"/>
<stop offset="0.359375" stop-color="#9FA1A1"/>
<stop offset="0.363281" stop-color="#A0A2A2"/>
<stop offset="0.367187" stop-color="#A1A4A3"/>
<stop offset="0.371094" stop-color="#A3A5A4"/>
<stop offset="0.375" stop-color="#A4A6A6"/>
<stop offset="0.378906" stop-color="#A5A8A7"/>
<stop offset="0.382813" stop-color="#A7A9A8"/>
<stop offset="0.386719" stop-color="#A8AAAA"/>
<stop offset="0.390625" stop-color="#AAACAB"/>
<stop offset="0.394531" stop-color="#ABADAC"/>
<stop offset="0.398438" stop-color="#ACAFAE"/>
<stop offset="0.402344" stop-color="#AEB0AF"/>
<stop offset="0.40625" stop-color="#AFB1B0"/>
<stop offset="0.4375" stop-color="#AFB2B1"/>
<stop offset="0.445312" stop-color="#AFB2B1"/>
<stop offset="0.453125" stop-color="#AFB1B0"/>
<stop offset="0.460938" stop-color="#AEB0AF"/>
<stop offset="0.46875" stop-color="#ADB0AE"/>
<stop offset="0.476562" stop-color="#ACAFAE"/>
<stop offset="0.484375" stop-color="#ACAEAD"/>
<stop offset="0.492188" stop-color="#ABAEAC"/>
<stop offset="0.5" stop-color="#AAADAC"/>
<stop offset="0.507812" stop-color="#A9ACAB"/>
<stop offset="0.515625" stop-color="#A9ABAA"/>
<stop offset="0.523438" stop-color="#A8ABAA"/>
<stop offset="0.53125" stop-color="#A7AAA9"/>
<stop offset="0.539062" stop-color="#A7A9A8"/>
<stop offset="0.546875" stop-color="#A6A9A7"/>
<stop offset="0.554688" stop-color="#A5A8A7"/>
<stop offset="0.5625" stop-color="#A4A7A6"/>
<stop offset="0.570312" stop-color="#A4A7A5"/>
<stop offset="0.578125" stop-color="#A3A6A5"/>
<stop offset="0.585938" stop-color="#A2A5A4"/>
<stop offset="0.589844" stop-color="#A4A7A5"/>
<stop offset="0.59375" stop-color="#A5A8A7"/>
<stop offset="0.597656" stop-color="#A7AAA8"/>
<stop offset="0.601562" stop-color="#A9ABAA"/>
<stop offset="0.605469" stop-color="#ABADAC"/>
<stop offset="0.609375" stop-color="#ADAFAD"/>
<stop offset="0.613281" stop-color="#AEB0AF"/>
<stop offset="0.617188" stop-color="#B0B2B0"/>
<stop offset="0.621094" stop-color="#B2B4B2"/>
<stop offset="0.625" stop-color="#B4B5B4"/>
<stop offset="0.628906" stop-color="#B6B7B5"/>
<stop offset="0.632812" stop-color="#B8B9B7"/>
<stop offset="0.636719" stop-color="#BABAB9"/>
<stop offset="0.640625" stop-color="#BBBCBA"/>
<stop offset="0.644531" stop-color="#BDBEBC"/>
<stop offset="0.648437" stop-color="#BFC0BE"/>
<stop offset="0.652344" stop-color="#C1C1C0"/>
<stop offset="0.65625" stop-color="#C3C3C1"/>
<stop offset="0.660156" stop-color="#C5C5C3"/>
<stop offset="0.664062" stop-color="#C7C7C5"/>
<stop offset="0.667969" stop-color="#C9C9C7"/>
<stop offset="0.671875" stop-color="#CBCBC9"/>
<stop offset="0.675781" stop-color="#CDCCCB"/>
<stop offset="0.679687" stop-color="#CFCECD"/>
<stop offset="0.683594" stop-color="#D1D0CF"/>
<stop offset="0.6875" stop-color="#D3D2D0"/>
<stop offset="0.691406" stop-color="#D5D4D2"/>
<stop offset="0.695312" stop-color="#D7D6D4"/>
<stop offset="0.699219" stop-color="#D9D8D6"/>
<stop offset="0.703125" stop-color="#DBDAD8"/>
<stop offset="0.707031" stop-color="#DDDCDA"/>
<stop offset="0.710937" stop-color="#DFDEDD"/>
<stop offset="0.714844" stop-color="#E1E0DF"/>
<stop offset="0.71875" stop-color="#E3E2E1"/>
<stop offset="0.722656" stop-color="#E5E4E3"/>
<stop offset="0.726562" stop-color="#E7E6E5"/>
<stop offset="0.730469" stop-color="#E9E8E7"/>
<stop offset="0.734375" stop-color="#EBEAE9"/>
<stop offset="0.738281" stop-color="#EDECEB"/>
<stop offset="0.742187" stop-color="#EFEFEE"/>
<stop offset="0.746094" stop-color="#F1F1F0"/>
<stop offset="0.75" stop-color="#F3F3F2"/>
<stop offset="0.753906" stop-color="#F5F5F4"/>
<stop offset="0.757813" stop-color="#F8F7F7"/>
<stop offset="0.761719" stop-color="#FAF9F9"/>
<stop offset="0.765625" stop-color="#FCFCFB"/>
<stop offset="0.769531" stop-color="#FDFDFD"/>
<stop offset="0.773438" stop-color="white"/>
<stop offset="0.78125" stop-color="white"/>
<stop offset="0.8125" stop-color="white"/>
<stop offset="0.875" stop-color="white"/>
<stop offset="1" stop-color="white"/>
</linearGradient>
</defs>
</svg>
