<svg width="22" height="22" viewBox="0 0 22 22" fill="none" xmlns="http://www.w3.org/2000/svg">
<mask id="mask0_39_398" style="mask-type:luminance" maskUnits="userSpaceOnUse" x="1" y="1" width="21" height="21">
<path d="M21.3575 1.63281H1.64697V21.3434H21.3575V1.63281Z" fill="white"/>
</mask>
<g mask="url(#mask0_39_398)">
<path d="M19.7149 15.5289V17.9927C19.7159 18.2214 19.669 18.4478 19.5774 18.6574C19.4857 18.867 19.3514 19.0551 19.1828 19.2097C19.0143 19.3644 18.8153 19.4821 18.5986 19.5554C18.3819 19.6286 18.1524 19.6558 17.9246 19.6353C15.3974 19.3607 12.9698 18.4971 10.837 17.1139C8.85261 15.853 7.17025 14.1706 5.90931 12.1863C4.52135 10.0438 3.65759 7.60441 3.38801 5.06585C3.36749 4.83875 3.39447 4.60985 3.46725 4.39375C3.54005 4.17763 3.65703 3.97905 3.81077 3.81063C3.96451 3.64221 4.15163 3.50765 4.36023 3.41553C4.56881 3.32339 4.79431 3.27569 5.02233 3.27547H7.48615C7.88473 3.27155 8.27113 3.41269 8.57333 3.67259C8.87553 3.93249 9.07293 4.29341 9.12871 4.68807C9.23269 5.47655 9.42555 6.25073 9.70359 6.99585C9.81409 7.28979 9.83801 7.60927 9.77251 7.91639C9.70701 8.22353 9.55483 8.50543 9.33403 8.72873L8.29101 9.77175C9.46013 11.8279 11.1626 13.5303 13.2187 14.6994L14.2617 13.6564C14.485 13.4356 14.7669 13.2834 15.074 13.2179C15.3811 13.1524 15.7006 13.1763 15.9946 13.2868C16.7397 13.5648 17.5139 13.7577 18.3023 13.8617C18.7013 13.918 19.0656 14.1189 19.3261 14.4263C19.5865 14.7337 19.7249 15.1261 19.7149 15.5289Z" stroke="#F8B514" stroke-width="1.97106" stroke-linecap="round" stroke-linejoin="round"/>
</g>
</svg>
