<svg width="44" height="44" viewBox="0 0 44 44" fill="none" xmlns="http://www.w3.org/2000/svg">
<g clip-path="url(#clip0_142_6748)">
<g clip-path="url(#clip1_142_6748)">
<mask id="mask0_142_6748" style="mask-type:luminance" maskUnits="userSpaceOnUse" x="7" y="8" width="27" height="28">
<path d="M27.2393 8.67188H13.8059C10.1167 8.67188 7.12598 11.6626 7.12598 15.3518V28.7117C7.12598 32.4009 10.1167 35.3917 13.8059 35.3917H27.2393C30.9285 35.3917 33.9192 32.4009 33.9192 28.7117V15.3518C33.9192 11.6626 30.9285 8.67188 27.2393 8.67188Z" fill="white"/>
</mask>
<g mask="url(#mask0_142_6748)">
<path fill-rule="evenodd" clip-rule="evenodd" d="M9.40021 21.2445C16.3235 18.2364 20.94 16.2533 23.25 15.2951C29.8453 12.5594 31.2157 12.0842 32.1089 12.0685C32.3055 12.0651 32.7447 12.1136 33.0293 12.3439C33.2694 12.5383 33.3355 12.8009 33.3672 12.9853C33.3988 13.1696 33.4382 13.5895 33.4069 13.9176C33.0496 17.6626 31.503 26.7506 30.7162 30.9451C30.3834 32.7197 29.728 33.3149 29.0933 33.3731C27.7141 33.4996 26.6668 32.4642 25.3312 31.591C23.2409 30.2245 22.0601 29.374 20.0312 28.0407C17.6864 26.4997 19.2064 25.6528 20.5427 24.2687C20.8924 23.9065 26.969 18.3946 27.0865 17.8946C27.1013 17.832 27.1148 17.5989 26.9761 17.4758C26.8372 17.3528 26.6322 17.3949 26.4842 17.4283C26.2747 17.4758 22.9356 19.6768 16.467 24.0313C15.5191 24.6803 14.6607 24.9966 13.8915 24.98C13.0435 24.9617 11.4124 24.5019 10.1998 24.1088C8.71256 23.6267 7.53052 23.3718 7.63345 22.553C7.68706 22.1265 8.27598 21.6903 9.40021 21.2445Z" fill="#F8B514"/>
</g>
</g>
</g>
<rect x="0.5" y="0.5" width="43" height="43" rx="5.5" stroke="#F8B514"/>
<defs>
<clipPath id="clip0_142_6748">
<rect width="28.7071" height="28.7071" fill="white" transform="translate(6 8)"/>
</clipPath>
<clipPath id="clip1_142_6748">
<rect width="28.7071" height="28.7071" fill="white" transform="translate(6 8)"/>
</clipPath>
</defs>
</svg>
