<svg width="1155" height="551" viewBox="0 0 1155 551" fill="none" xmlns="http://www.w3.org/2000/svg">
<mask id="mask0_142_6975" style="mask-type:luminance" maskUnits="userSpaceOnUse" x="0" y="0" width="1155" height="551">
<path d="M969.205 4.3938C944.36 4.3938 908.43 2.88735 861.416 0C842.578 37.4938 826.196 67.0787 812.491 88.7129L771.265 153.197L759.798 171.065L739.813 202.491L728.237 220.694L588.287 439.464C553.777 388.245 519.376 335.645 485.576 281.622C470.888 258.314 457.455 236.763 445.006 217.137C441.129 210.819 437.306 204.709 433.539 198.809C426.276 187.134 419.451 176.254 413.171 166.044C409.24 159.725 405.472 153.741 401.814 148.05C372.874 102.02 355.291 73.4811 348.739 62.5594C339.893 48.2063 328.426 27.409 314.065 0C274.04 2.88735 236.746 4.3938 202.072 4.3938C171.603 4.3938 127.155 2.88735 68.5651 0V23.057C81.5609 25.4004 91.335 26.9905 98.0513 27.7437C144.356 33.0163 174.115 37.4938 187.384 41.4691C194.373 43.4777 199.396 46.9091 202.618 51.7632C205.84 56.5754 207.369 68.4596 207.369 87.5413L207.969 135.078C207.969 155.248 207.805 175.375 207.642 195.838C225.989 195.629 243.735 193.913 261.317 190.9C263.174 190.565 264.976 190.273 266.778 189.854L265.14 98.463C282.285 124.491 299.213 150.101 315.594 175.041C319.798 181.276 323.839 187.469 327.88 193.704C333.449 202.282 339.074 210.819 344.643 219.272C348.575 225.297 352.506 231.281 356.274 237.182C431.191 352.215 496.879 456.453 553.34 549.644H583.263C597.952 523.616 620.721 486.038 651.464 436.869C702.901 354.81 745.819 286.685 780.384 232.453C784.261 226.26 788.028 220.234 791.851 214.459C797.966 204.835 803.863 195.712 809.324 187.05C813.201 180.815 817.132 174.957 820.791 169.266C840.885 137.965 856.393 114.406 867.313 98.463V185.126C869.989 185.879 872.501 186.506 875.122 187.134C899.475 192.951 925.03 195.922 950.748 195.922C952.605 186.297 958.174 177.928 966.256 171.526L967.676 87.8342V82.8127C967.676 61.7225 972.153 48.6247 981.381 43.394C986.951 39.9627 1014.09 34.732 1062.74 27.409C1068.04 26.572 1075.9 25.1911 1086.38 23.057V0C1031.4 2.88735 992.302 4.3938 969.205 4.3938ZM553.34 127.295C539.634 131.019 527.785 138.091 519.649 147.213H519.54C508.346 147.841 480.116 150.226 438.071 159.851L459.585 194.332C459.694 194.206 459.858 194.206 459.967 194.206L515.336 152.653C510.039 160.144 507.09 168.848 507.09 177.928C507.09 180.606 507.363 183.41 507.909 186.004C512.933 211.907 542.146 231.825 577.53 231.825C612.913 231.825 642.126 211.907 647.15 186.004C647.696 183.41 647.969 180.606 647.969 177.928C647.969 168.848 645.075 160.269 639.887 152.779L695.092 194.206C701.099 195.168 707.433 196.256 714.258 197.428L716.606 193.788L735.335 164.328C683.188 150.854 648.242 147.841 635.41 147.213C627.274 138.091 615.425 131.019 601.719 127.295C594.184 125.119 586.048 123.947 577.53 123.947C569.011 123.947 560.875 125.119 553.34 127.295ZM992.029 181.276C982.364 185.209 975.921 192.951 975.921 202.994C975.921 208.141 977.614 210.526 980.562 214.669C975.921 215.003 970.897 215.338 965.601 215.422C939.445 216.51 905.045 215.003 867.313 206.007C858.795 203.956 850.277 201.529 841.431 198.642L832.64 195.629C832.64 195.712 832.531 195.712 832.531 195.838C829.418 200.65 820.354 214.92 816.586 220.694C825.104 222.745 833.35 224.46 841.431 225.841C850.277 227.557 858.904 228.812 867.313 229.984C906.028 235.257 939.991 235.801 965.601 234.713C975.484 234.294 984.166 233.625 991.428 232.997V243.166L986.569 253.376L965.71 296.854C965.601 283.379 965.601 269.319 965.601 254.548C958.721 254.84 951.349 254.966 943.486 254.966C918.204 254.966 892.595 253.376 867.313 250.028V439.213C867.313 466.747 866.331 485.703 864.256 496.081C863.819 496.751 863.546 497.504 863.819 498.257C863.819 498.759 864.092 499.429 864.692 499.847C895.434 530.604 948.673 550.857 1009.34 550.857C1037.02 550.857 1063.18 546.673 1086.38 539.057C1095.45 536.086 1104.13 532.612 1112.21 528.679C1128.7 520.854 1142.85 510.978 1154.04 499.847C1156.39 497.504 1154.15 494.156 1150.38 494.156H1147.76L1029.32 247.35L1020.37 228.812C1033.09 224.963 1042.21 214.92 1042.21 202.994C1042.21 187.804 1027.36 177.928 1009.07 177.928C1002.9 177.928 997.053 179.142 992.029 181.276ZM991.592 203.872V203.663C1006.39 199.479 1009.34 189.185 1009.34 189.185C1009.34 189.185 1012.29 199.604 1027.36 203.747C1012.29 207.931 1009.34 218.309 1009.34 218.309C1009.34 218.309 1006.39 208.057 991.592 203.872ZM1014.25 250.363V237.6L1019.99 249.526L1137.22 494.156H1014.25V250.363ZM965.71 318.362L991.428 264.591L997.326 252.413V252.288L1004.42 237.6V494.156H881.456L965.71 318.362ZM112.904 202.994C112.904 214.92 121.968 224.963 134.691 228.812L7.35395 494.156H4.67835C0.80147 494.156 -1.3281 497.504 0.910667 499.847C21.7694 520.519 52.6207 536.504 89.0962 544.748C106.897 548.681 125.899 550.857 145.721 550.857C199.56 550.857 247.666 534.872 279.228 509.723C283.323 506.584 287.091 503.279 290.421 499.847C292.769 497.504 290.531 494.156 286.654 494.156H283.978L272.129 469.342C271.965 467.082 271.965 464.739 271.965 462.27L268.034 252.288C250.014 254.004 231.722 254.84 213.648 254.84H207.096C206.823 280.157 206.386 305.641 206.004 331.46L158.443 232.453C164.723 233.123 172.422 233.876 181.541 234.294C189.185 234.713 197.868 235.047 207.369 235.047C224.842 235.257 245.264 234.629 267.652 232.369C276.006 231.491 284.524 230.528 293.479 229.147C301.888 227.976 310.407 226.595 319.198 224.879C315.594 219.188 309.587 209.856 304.127 201.529L293.097 204.5C284.251 206.843 275.624 208.685 267.215 210.191C245.428 214.041 225.115 215.547 207.532 215.631C198.141 215.882 189.513 215.631 181.65 215.213C179.138 215.003 176.627 214.92 174.388 214.669C177.446 210.526 179.138 208.141 179.138 202.994C179.138 187.804 164.341 177.928 145.994 177.928C127.701 177.928 112.904 187.804 112.904 202.994ZM127.701 203.747C142.827 199.604 145.721 189.185 145.721 189.185C145.721 189.185 148.669 199.604 163.795 203.747C148.669 207.931 145.721 218.309 145.721 218.309C145.721 218.309 142.827 207.931 127.701 203.747ZM150.635 237.6L205.567 352.215L273.658 494.156H150.635V237.6ZM140.861 237.6V494.156H17.6741L140.861 237.6Z" fill="white"/>
</mask>
<g mask="url(#mask0_142_6975)">
<path d="M-1 -3.14453V550.855H1156V-3.14453H-1Z" fill="url(#paint0_linear_142_6975)"/>
</g>
<defs>
<linearGradient id="paint0_linear_142_6975" x1="-0.990838" y1="273.854" x2="1156" y2="273.854" gradientUnits="userSpaceOnUse">
<stop stop-color="white"/>
<stop offset="0.00390625" stop-color="#FDFCFC"/>
<stop offset="0.0078125" stop-color="#FAFAFA"/>
<stop offset="0.0117188" stop-color="#F7F7F7"/>
<stop offset="0.015625" stop-color="#F4F4F3"/>
<stop offset="0.0195312" stop-color="#F2F1F0"/>
<stop offset="0.0234375" stop-color="#EFEEED"/>
<stop offset="0.0273438" stop-color="#ECEBEB"/>
<stop offset="0.03125" stop-color="#E9E8E8"/>
<stop offset="0.0351562" stop-color="#E7E5E5"/>
<stop offset="0.0390625" stop-color="#E4E3E2"/>
<stop offset="0.0429687" stop-color="#E1E0DF"/>
<stop offset="0.046875" stop-color="#DFDDDC"/>
<stop offset="0.0507813" stop-color="#DCDADA"/>
<stop offset="0.0546875" stop-color="#D9D8D7"/>
<stop offset="0.0585938" stop-color="#D7D5D4"/>
<stop offset="0.0625" stop-color="#D4D2D1"/>
<stop offset="0.0664062" stop-color="#D2D0CF"/>
<stop offset="0.0703125" stop-color="#CFCDCC"/>
<stop offset="0.0742188" stop-color="#CCCBCA"/>
<stop offset="0.078125" stop-color="#CAC8C7"/>
<stop offset="0.0820312" stop-color="#C7C6C5"/>
<stop offset="0.0859375" stop-color="#C5C3C2"/>
<stop offset="0.0898437" stop-color="#C2C1C0"/>
<stop offset="0.09375" stop-color="#C0BEBD"/>
<stop offset="0.0976563" stop-color="#BEBCBB"/>
<stop offset="0.101563" stop-color="#BBBAB9"/>
<stop offset="0.105469" stop-color="#B9B7B6"/>
<stop offset="0.109375" stop-color="#B6B5B4"/>
<stop offset="0.113281" stop-color="#B4B3B2"/>
<stop offset="0.117188" stop-color="#B2B0B0"/>
<stop offset="0.121094" stop-color="#AFAEAD"/>
<stop offset="0.125" stop-color="#ADACAB"/>
<stop offset="0.128906" stop-color="#ABAAA9"/>
<stop offset="0.132812" stop-color="#A8A7A7"/>
<stop offset="0.136719" stop-color="#A6A5A5"/>
<stop offset="0.140625" stop-color="#A4A3A3"/>
<stop offset="0.144531" stop-color="#A2A1A1"/>
<stop offset="0.148438" stop-color="#9F9F9F"/>
<stop offset="0.152344" stop-color="#9D9D9D"/>
<stop offset="0.15625" stop-color="#9B9B9B"/>
<stop offset="0.160156" stop-color="#999999"/>
<stop offset="0.164062" stop-color="#979797"/>
<stop offset="0.167969" stop-color="#959595"/>
<stop offset="0.171875" stop-color="#929393"/>
<stop offset="0.175781" stop-color="#909191"/>
<stop offset="0.179687" stop-color="#8E8F8F"/>
<stop offset="0.183594" stop-color="#8C8D8E"/>
<stop offset="0.1875" stop-color="#8A8B8C"/>
<stop offset="0.191406" stop-color="#888A8A"/>
<stop offset="0.195313" stop-color="#868888"/>
<stop offset="0.199219" stop-color="#848687"/>
<stop offset="0.203125" stop-color="#828485"/>
<stop offset="0.207031" stop-color="#808283"/>
<stop offset="0.210938" stop-color="#7E8182"/>
<stop offset="0.214844" stop-color="#7C7F80"/>
<stop offset="0.21875" stop-color="#7A7D7E"/>
<stop offset="0.222656" stop-color="#787C7D"/>
<stop offset="0.226562" stop-color="#767A7B"/>
<stop offset="0.234375" stop-color="#777A7C"/>
<stop offset="0.238281" stop-color="#787C7D"/>
<stop offset="0.242188" stop-color="#797D7E"/>
<stop offset="0.246094" stop-color="#7B7E7F"/>
<stop offset="0.25" stop-color="#7C7F80"/>
<stop offset="0.253906" stop-color="#7D8081"/>
<stop offset="0.257812" stop-color="#7E8182"/>
<stop offset="0.261719" stop-color="#7F8283"/>
<stop offset="0.265625" stop-color="#808484"/>
<stop offset="0.269531" stop-color="#828585"/>
<stop offset="0.273438" stop-color="#838687"/>
<stop offset="0.277344" stop-color="#848788"/>
<stop offset="0.28125" stop-color="#858889"/>
<stop offset="0.285156" stop-color="#86898A"/>
<stop offset="0.289062" stop-color="#888A8B"/>
<stop offset="0.292969" stop-color="#898C8C"/>
<stop offset="0.296875" stop-color="#8A8D8D"/>
<stop offset="0.300781" stop-color="#8B8E8E"/>
<stop offset="0.304688" stop-color="#8D8F90"/>
<stop offset="0.308594" stop-color="#8E9091"/>
<stop offset="0.3125" stop-color="#8F9292"/>
<stop offset="0.316406" stop-color="#909393"/>
<stop offset="0.320312" stop-color="#929494"/>
<stop offset="0.324219" stop-color="#939595"/>
<stop offset="0.328125" stop-color="#949797"/>
<stop offset="0.332031" stop-color="#959898"/>
<stop offset="0.335937" stop-color="#979999"/>
<stop offset="0.339844" stop-color="#989A9A"/>
<stop offset="0.34375" stop-color="#999C9B"/>
<stop offset="0.347656" stop-color="#9B9D9D"/>
<stop offset="0.351562" stop-color="#9C9E9E"/>
<stop offset="0.355469" stop-color="#9DA09F"/>
<stop offset="0.359375" stop-color="#9FA1A1"/>
<stop offset="0.363281" stop-color="#A0A2A2"/>
<stop offset="0.367187" stop-color="#A1A4A3"/>
<stop offset="0.371094" stop-color="#A3A5A4"/>
<stop offset="0.375" stop-color="#A4A6A6"/>
<stop offset="0.378906" stop-color="#A5A8A7"/>
<stop offset="0.382813" stop-color="#A7A9A8"/>
<stop offset="0.386719" stop-color="#A8AAAA"/>
<stop offset="0.390625" stop-color="#AAACAB"/>
<stop offset="0.394531" stop-color="#ABADAC"/>
<stop offset="0.398438" stop-color="#ACAFAE"/>
<stop offset="0.402344" stop-color="#AEB0AF"/>
<stop offset="0.40625" stop-color="#AFB1B0"/>
<stop offset="0.4375" stop-color="#AFB2B1"/>
<stop offset="0.445312" stop-color="#AFB2B1"/>
<stop offset="0.453125" stop-color="#AFB1B0"/>
<stop offset="0.460938" stop-color="#AEB0AF"/>
<stop offset="0.46875" stop-color="#ADB0AE"/>
<stop offset="0.476562" stop-color="#ACAFAE"/>
<stop offset="0.484375" stop-color="#ACAEAD"/>
<stop offset="0.492188" stop-color="#ABAEAC"/>
<stop offset="0.5" stop-color="#AAADAC"/>
<stop offset="0.507812" stop-color="#A9ACAB"/>
<stop offset="0.515625" stop-color="#A9ABAA"/>
<stop offset="0.523438" stop-color="#A8ABAA"/>
<stop offset="0.53125" stop-color="#A7AAA9"/>
<stop offset="0.539062" stop-color="#A7A9A8"/>
<stop offset="0.546875" stop-color="#A6A9A7"/>
<stop offset="0.554688" stop-color="#A5A8A7"/>
<stop offset="0.5625" stop-color="#A4A7A6"/>
<stop offset="0.570312" stop-color="#A4A7A5"/>
<stop offset="0.578125" stop-color="#A3A6A5"/>
<stop offset="0.585938" stop-color="#A2A5A4"/>
<stop offset="0.589844" stop-color="#A4A7A5"/>
<stop offset="0.59375" stop-color="#A5A8A7"/>
<stop offset="0.597656" stop-color="#A7AAA8"/>
<stop offset="0.601562" stop-color="#A9ABAA"/>
<stop offset="0.605469" stop-color="#ABADAC"/>
<stop offset="0.609375" stop-color="#ADAFAD"/>
<stop offset="0.613281" stop-color="#AEB0AF"/>
<stop offset="0.617188" stop-color="#B0B2B0"/>
<stop offset="0.621094" stop-color="#B2B4B2"/>
<stop offset="0.625" stop-color="#B4B5B4"/>
<stop offset="0.628906" stop-color="#B6B7B5"/>
<stop offset="0.632812" stop-color="#B8B9B7"/>
<stop offset="0.636719" stop-color="#BABAB9"/>
<stop offset="0.640625" stop-color="#BBBCBA"/>
<stop offset="0.644531" stop-color="#BDBEBC"/>
<stop offset="0.648437" stop-color="#BFC0BE"/>
<stop offset="0.652344" stop-color="#C1C1C0"/>
<stop offset="0.65625" stop-color="#C3C3C1"/>
<stop offset="0.660156" stop-color="#C5C5C3"/>
<stop offset="0.664062" stop-color="#C7C7C5"/>
<stop offset="0.667969" stop-color="#C9C9C7"/>
<stop offset="0.671875" stop-color="#CBCBC9"/>
<stop offset="0.675781" stop-color="#CDCCCB"/>
<stop offset="0.679687" stop-color="#CFCECD"/>
<stop offset="0.683594" stop-color="#D1D0CF"/>
<stop offset="0.6875" stop-color="#D3D2D0"/>
<stop offset="0.691406" stop-color="#D5D4D2"/>
<stop offset="0.695312" stop-color="#D7D6D4"/>
<stop offset="0.699219" stop-color="#D9D8D6"/>
<stop offset="0.703125" stop-color="#DBDAD8"/>
<stop offset="0.707031" stop-color="#DDDCDA"/>
<stop offset="0.710937" stop-color="#DFDEDD"/>
<stop offset="0.714844" stop-color="#E1E0DF"/>
<stop offset="0.71875" stop-color="#E3E2E1"/>
<stop offset="0.722656" stop-color="#E5E4E3"/>
<stop offset="0.726562" stop-color="#E7E6E5"/>
<stop offset="0.730469" stop-color="#E9E8E7"/>
<stop offset="0.734375" stop-color="#EBEAE9"/>
<stop offset="0.738281" stop-color="#EDECEB"/>
<stop offset="0.742187" stop-color="#EFEFEE"/>
<stop offset="0.746094" stop-color="#F1F1F0"/>
<stop offset="0.75" stop-color="#F3F3F2"/>
<stop offset="0.753906" stop-color="#F5F5F4"/>
<stop offset="0.757813" stop-color="#F8F7F7"/>
<stop offset="0.761719" stop-color="#FAF9F9"/>
<stop offset="0.765625" stop-color="#FCFCFB"/>
<stop offset="0.769531" stop-color="#FDFDFD"/>
<stop offset="0.773438" stop-color="white"/>
<stop offset="0.78125" stop-color="white"/>
<stop offset="0.8125" stop-color="white"/>
<stop offset="0.875" stop-color="white"/>
<stop offset="1" stop-color="white"/>
</linearGradient>
</defs>
</svg>
